<svg width="583" height="646" viewBox="0 0 583 646" fill="none" xmlns="http://www.w3.org/2000/svg">
<path d="M105.268 31.539C109.771 14.7349 127.043 4.76251 143.848 9.26517L465.162 95.3611C481.966 99.8637 491.938 117.136 487.436 133.941L390.933 494.094C386.43 510.898 369.158 520.871 352.353 516.368L31.0391 430.272C14.2349 425.769 4.2626 408.497 8.76526 391.693L105.268 31.539Z" stroke="#437EF7"/>
<path d="M343.52 199.481C355.821 187.179 375.766 187.179 388.067 199.481L572.338 383.752C584.64 396.053 584.64 415.998 572.338 428.3L364.8 635.838C352.498 648.14 332.553 648.14 320.252 635.838L135.981 451.567C123.679 439.266 123.679 419.321 135.981 407.02L343.52 199.481Z" stroke="#437EF7"/>
</svg>
