<svg width="32" height="33" viewBox="0 0 32 33" fill="none" xmlns="http://www.w3.org/2000/svg">
<path d="M2.6668 15.1667H10.6668C11.0204 15.1667 11.3596 15.0262 11.6096 14.7761C11.8597 14.5261 12.0001 14.187 12.0001 13.8333V5.83333C12.0001 5.47971 11.8597 5.14057 11.6096 4.89052C11.3596 4.64048 11.0204 4.5 10.6668 4.5H2.6668C2.31317 4.5 1.97403 4.64048 1.72399 4.89052C1.47394 5.14057 1.33346 5.47971 1.33346 5.83333V13.8333C1.33346 14.187 1.47394 14.5261 1.72399 14.7761C1.97403 15.0262 2.31317 15.1667 2.6668 15.1667ZM4.00013 7.16667H9.33346V12.5H4.00013V7.16667ZM29.3335 8.5H16.0001C15.6465 8.5 15.3074 8.64048 15.0573 8.89052C14.8073 9.14057 14.6668 9.47971 14.6668 9.83333C14.6668 10.187 14.8073 10.5261 15.0573 10.7761C15.3074 11.0262 15.6465 11.1667 16.0001 11.1667H29.3335C29.6871 11.1667 30.0262 11.0262 30.2763 10.7761C30.5263 10.5261 30.6668 10.187 30.6668 9.83333C30.6668 9.47971 30.5263 9.14057 30.2763 8.89052C30.0262 8.64048 29.6871 8.5 29.3335 8.5ZM29.3335 21.8333H16.0001C15.6465 21.8333 15.3074 21.9738 15.0573 22.2239C14.8073 22.4739 14.6668 22.813 14.6668 23.1667C14.6668 23.5203 14.8073 23.8594 15.0573 24.1095C15.3074 24.3595 15.6465 24.5 16.0001 24.5H29.3335C29.6871 24.5 30.0262 24.3595 30.2763 24.1095C30.5263 23.8594 30.6668 23.5203 30.6668 23.1667C30.6668 22.813 30.5263 22.4739 30.2763 22.2239C30.0262 21.9738 29.6871 21.8333 29.3335 21.8333ZM5.25613 27.1667H5.27213C5.62173 27.1655 5.9569 27.0272 6.20546 26.7813L11.6001 21.448C11.7385 21.3289 11.851 21.1826 11.9306 21.0182C12.0101 20.8538 12.055 20.6749 12.0626 20.4924C12.0701 20.31 12.0401 20.1279 11.9744 19.9575C11.9087 19.7872 11.8086 19.6321 11.6805 19.502C11.5524 19.3718 11.3989 19.2694 11.2296 19.201C11.0603 19.1327 10.8787 19.0998 10.6961 19.1045C10.5136 19.1092 10.3339 19.1513 10.1683 19.2283C10.0027 19.3053 9.85473 19.4155 9.73346 19.552L5.2948 23.9373L3.62546 22.204C3.50368 22.0781 3.3583 21.9774 3.19761 21.9077C3.03693 21.838 2.86408 21.8006 2.68895 21.7977C2.33526 21.7919 1.99372 21.9267 1.73946 22.1727C1.48521 22.4186 1.33907 22.7555 1.33319 23.1092C1.32732 23.4629 1.46218 23.8044 1.70813 24.0587L4.31346 26.7667C4.43648 26.8922 4.58309 26.9921 4.74486 27.0608C4.90664 27.1294 5.08039 27.1654 5.25613 27.1667Z" fill="#F4F3F8"/>
</svg>
