<svg width="53" height="53" viewBox="0 0 53 53" fill="none" xmlns="http://www.w3.org/2000/svg">
<path d="M16.875 53H5.625C2.4375 53 0 50.5625 0 47.375V36.125C0 32.9375 2.4375 30.5 5.625 30.5H16.875C20.0625 30.5 22.5 32.9375 22.5 36.125V47.375C22.5 50.5625 20.0625 53 16.875 53Z" fill="#1358DB"/>
<path d="M50.625 8H28.125C27 8 26.25 7.25 26.25 6.125C26.25 5 27 4.25 28.125 4.25H50.625C51.75 4.25 52.5 5 52.5 6.125C52.5 7.25 51.75 8 50.625 8Z" fill="#1358DB"/>
<path d="M41.25 15.5H28.125C27 15.5 26.25 14.75 26.25 13.625C26.25 12.5 27 11.75 28.125 11.75H41.25C42.375 11.75 43.125 12.5 43.125 13.625C43.125 14.75 42.375 15.5 41.25 15.5Z" fill="#1358DB"/>
<path d="M50.625 38H28.125C27 38 26.25 37.25 26.25 36.125C26.25 35 27 34.25 28.125 34.25H50.625C51.75 34.25 52.5 35 52.5 36.125C52.5 37.25 51.75 38 50.625 38Z" fill="#1358DB"/>
<path d="M41.25 45.5H28.125C27 45.5 26.25 44.75 26.25 43.625C26.25 42.5 27 41.75 28.125 41.75H41.25C42.375 41.75 43.125 42.5 43.125 43.625C43.125 44.75 42.375 45.5 41.25 45.5Z" fill="#1358DB"/>
<path d="M16.875 0.5H5.625C2.4375 0.5 0 2.9375 0 6.125V17.375C0 20.5625 2.4375 23 5.625 23H16.875C20.0625 23 22.5 20.5625 22.5 17.375V6.125C22.5 2.9375 20.0625 0.5 16.875 0.5ZM18.1875 9.3125L12.5625 14.9375C12.1875 15.3125 11.8125 15.5 11.25 15.5C10.6875 15.5 10.3125 15.3125 9.9375 14.9375L6.1875 11.1875C5.4375 10.4375 5.4375 9.3125 6.1875 8.5625C6.9375 7.8125 8.0625 7.8125 8.8125 8.5625L11.25 11L15.5625 6.6875C16.3125 5.9375 17.4375 5.9375 18.1875 6.6875C18.9375 7.4375 18.9375 8.5625 18.1875 9.3125Z" fill="#1358DB"/>
</svg>
