<svg width="22" height="22" viewBox="0 0 22 22" fill="none" xmlns="http://www.w3.org/2000/svg">
<path d="M22 4.6111V9.72222C21.0222 8.95555 19.5556 8.44444 18.3333 8.44444C14.9111 8.44444 12.2222 11.2556 12.2222 14.8333C12.2222 16.1111 12.7111 17.6444 13.4444 18.6667H1.22222C0.488889 18.6667 0 18.0278 0 17.3889V2.05555C0 1.28888 0.611111 0.777771 1.22222 0.777771H9.77778C10.3889 0.777771 11 1.28888 11 2.05555V3.33333H20.7778C21.5111 3.33333 22 3.97222 22 4.6111Z" fill="#EE3A24"/>
<path d="M21.6333 15.7278C21.3889 15.9833 21.0222 16.1111 20.7778 16.1111C20.4111 16.1111 20.1667 16.1111 19.9222 15.7278L19.5556 15.3444V19.9444C19.5556 20.7111 18.9444 21.2222 18.3333 21.2222C17.7222 21.2222 17.1111 20.5833 17.1111 19.9444V15.3444L16.7444 15.7278C16.5 15.9833 16.1333 16.1111 15.8889 16.1111C15.5222 16.1111 15.2778 16.1111 15.0333 15.7278C14.5444 15.2167 14.5444 14.45 15.0333 13.9389L17.4778 11.3833C17.9667 10.8722 18.7 10.8722 19.1889 11.3833L21.6333 13.9389C22.1222 14.45 22.1222 15.2167 21.6333 15.7278Z" fill="#EE3A24"/>
</svg>
