<svg width="14" height="17" viewBox="0 0 14 17" fill="none" xmlns="http://www.w3.org/2000/svg">
<path d="M3.53 2.508C3.97544 1.7321 4.66814 1.12793 5.49738 0.792065C6.32661 0.456203 7.24451 0.408039 8.10435 0.655272C8.96418 0.902506 9.71631 1.43086 10.2405 2.15588C10.7647 2.88091 11.0307 3.76074 10.996 4.65474C10.9613 5.54873 10.6278 6.40528 10.049 7.08747C9.47014 7.76966 8.6793 8.23809 7.80288 8.4179C6.92647 8.5977 6.01507 8.4785 5.21438 8.07934C4.41368 7.68018 3.76992 7.02411 3.386 6.216C3.1295 6.40364 2.81981 6.50453 2.502 6.504H2.002V6.759C2.002 6.949 2.074 7.122 2.192 7.253C2.29284 7.13901 2.426 7.05844 2.57377 7.02202C2.72154 6.9856 2.8769 6.99507 3.01915 7.04915C3.16141 7.10322 3.28382 7.19936 3.37008 7.32474C3.45634 7.45012 3.50235 7.59881 3.502 7.751C3.50193 7.85552 3.48001 7.95886 3.43765 8.05441C3.39529 8.14996 3.33343 8.23561 3.25603 8.30585C3.17864 8.37609 3.08741 8.42937 2.98822 8.46229C2.88902 8.49521 2.78403 8.50703 2.68 8.497C2.22962 8.48119 1.80296 8.29116 1.48994 7.96694C1.17692 7.64273 1.00198 7.20966 1.002 6.759V3.007C1.002 2.87439 1.05468 2.74721 1.14845 2.65345C1.24221 2.55968 1.36939 2.507 1.502 2.507H3.502L3.53 2.508ZM2.002 5.504H2.502C2.63461 5.504 2.76179 5.45132 2.85555 5.35755C2.94932 5.26378 3.002 5.13661 3.002 5.004V4.634C2.99906 4.54469 2.99906 4.45531 3.002 4.366V3.507H2.002V5.504ZM0 11.5C0 10.387 0.903 9.5 2.009 9.5H12C12.5304 9.5 13.0391 9.71071 13.4142 10.0858C13.7893 10.4609 14 10.9696 14 11.5C14 13.191 13.167 14.466 11.865 15.297C10.583 16.114 8.855 16.5 7 16.5C5.145 16.5 3.417 16.114 2.135 15.297C0.833 14.467 0 13.19 0 11.5Z" fill="white"/>
</svg>
