<svg width="18" height="19" viewBox="0 0 18 19" fill="none" xmlns="http://www.w3.org/2000/svg">
<path d="M9.53917 10.6096C9.29032 9.86986 9.45622 9.29452 9.53917 8.96575C9.45622 8.63699 9.29032 8.14384 9.45622 7.40411C9.70507 6.74658 10.1198 6.41781 10.3687 6.17123C10.4516 5.84247 10.6175 5.34932 11.2811 4.85616C11.8618 4.44521 12.4424 4.44521 12.7742 4.44521C12.8571 4.36301 13.023 4.28082 13.1889 4.19863V1.81507C13.2719 1.07534 12.6912 0.5 11.9447 0.5H1.32719C0.580645 0.5 0 1.07534 0 1.81507V9.86986C0 10.6096 0.580645 11.1849 1.32719 11.1849H9.87097C9.70507 11.0205 9.62212 10.8562 9.53917 10.6096ZM1.65899 3.78767V2.14384L6.63594 4.60959L11.6129 2.14384V3.78767L6.63594 6.25342L1.65899 3.78767ZM17.9171 7.81507C17.7512 7.32192 17.3364 7.23973 17.0876 6.99315C16.9217 6.74658 16.9217 6.25342 16.5069 6.00685C16.0922 5.67808 15.6774 5.84247 15.3456 5.76027C15.0138 5.67808 14.765 5.26712 14.2673 5.26712C13.7696 5.26712 13.5207 5.59589 13.1889 5.76027C12.8571 5.84247 12.4424 5.67808 12.0276 6.00685C11.6129 6.25342 11.6959 6.66438 11.447 6.99315C11.1982 7.23973 10.7834 7.40411 10.6175 7.81507C10.4516 8.30822 10.7834 8.63699 10.7834 8.96575C10.7834 9.29452 10.4516 9.62329 10.6175 10.1164C10.7834 10.6096 11.1982 10.6918 11.447 10.9384C11.6129 11.1849 11.6129 11.6781 12.0276 11.9247C12.4424 12.2534 12.8571 12.089 13.1889 12.1712C13.5207 12.2534 13.7696 12.6644 14.2673 12.6644C14.765 12.6644 15.0138 12.3356 15.3456 12.1712C15.6774 12.089 16.0922 12.2534 16.5069 11.9247C16.9217 11.5959 16.9217 11.1849 17.0876 10.9384C17.3364 10.6918 17.7512 10.5274 17.9171 10.1164C18.0829 9.62329 17.7512 9.29452 17.7512 8.96575C17.7512 8.63699 18.0829 8.30822 17.9171 7.81507ZM14.2673 11.5137C12.8571 11.5137 11.7788 10.363 11.7788 9.04795C11.7788 7.73288 12.9401 6.58219 14.2673 6.58219C15.5945 6.58219 16.7558 7.73288 16.7558 9.04795C16.7558 10.363 15.6774 11.5137 14.2673 11.5137ZM15.5115 8.96575C15.5115 9.62329 14.9309 10.1986 14.2673 10.1986C13.6037 10.1986 13.023 9.62329 13.023 8.96575C13.023 8.30822 13.6037 7.73288 14.2673 7.73288C14.9309 7.73288 15.5115 8.30822 15.5115 8.96575ZM15.3456 13.7329L14.9309 15.9521L14.4332 18.5L12.7742 16.9384L10.7834 17.8425L11.6129 13.1575C11.9447 13.3219 12.3594 13.4041 12.7742 13.4041C13.023 13.5685 13.3548 13.7329 13.6037 13.8151C13.7696 13.8973 14.0184 13.8973 14.2673 13.8973C14.682 13.9795 15.0138 13.8973 15.3456 13.7329ZM18 15.7055L16.341 15.1301L16.6728 13.3219L17.1705 13.0753L17.2535 12.9932L18 15.7055Z" fill="white"/>
</svg>
