<svg width="20" height="14" viewBox="0 0 20 14" fill="none" xmlns="http://www.w3.org/2000/svg">
<path d="M14 0.5C12.87 0.5 11.77 0.85 10.84 1.5H2C0.89 1.5 0 2.39 0 3.5V9.5C0 10.61 0.89 11.5 2 11.5H3V12.5C3 12.7652 3.10536 13.0196 3.29289 13.2071C3.48043 13.3946 3.73478 13.5 4 13.5H6C6.26522 13.5 6.51957 13.3946 6.70711 13.2071C6.89464 13.0196 7 12.7652 7 12.5V11.5H13V12.5C13 12.7652 13.1054 13.0196 13.2929 13.2071C13.4804 13.3946 13.7348 13.5 14 13.5H16C16.2652 13.5 16.5196 13.3946 16.7071 13.2071C16.8946 13.0196 17 12.7652 17 12.5V11.5H18C19.11 11.5 20 10.61 20 9.5V3.5C20 2.39 19.11 1.5 18 1.5H17.15C16.23 0.85 15.13 0.5 14 0.5ZM14 2C14.4596 2 14.9148 2.09053 15.3394 2.26642C15.764 2.44231 16.1499 2.70012 16.4749 3.02513C16.7999 3.35013 17.0577 3.73597 17.2336 4.16061C17.4095 4.58525 17.5 5.04037 17.5 5.5C17.5 6.42826 17.1313 7.3185 16.4749 7.97487C15.8185 8.63125 14.9283 9 14 9C13.0717 9 12.1815 8.63125 11.5251 7.97487C10.8687 7.3185 10.5 6.42826 10.5 5.5C10.5 4.57174 10.8687 3.6815 11.5251 3.02513C12.1815 2.36875 13.0717 2 14 2ZM2 3.5H6V4.5H2V3.5ZM14 3.5C13.4696 3.5 12.9609 3.71071 12.5858 4.08579C12.2107 4.46086 12 4.96957 12 5.5C12 6.03043 12.2107 6.53914 12.5858 6.91421C12.9609 7.28929 13.4696 7.5 14 7.5C14.5304 7.5 15.0391 7.28929 15.4142 6.91421C15.7893 6.53914 16 6.03043 16 5.5C16 4.96957 15.7893 4.46086 15.4142 4.08579C15.0391 3.71071 14.5304 3.5 14 3.5ZM2 5.5H6V6.5H2V5.5ZM2 7.5H6V8.5H2V7.5Z" fill="white"/>
</svg>
