<svg width="20" height="10" viewBox="0 0 20 10" fill="none" xmlns="http://www.w3.org/2000/svg">
<path d="M15 10C13.8 10 12.7417 9.621 11.825 8.863C10.9083 8.105 10.3333 7.15067 10.1 6H4.8C4.6 6.45 4.29167 6.81267 3.875 7.088C3.45833 7.36333 3 7.50067 2.5 7.5C1.8 7.5 1.20833 7.25833 0.725 6.775C0.241667 6.29167 0 5.7 0 5C0 4.3 0.241667 3.70833 0.725 3.225C1.20833 2.74167 1.8 2.5 2.5 2.5C3 2.5 3.45833 2.63767 3.875 2.913C4.29167 3.18833 4.6 3.55067 4.8 4H10.1C10.3333 2.85 10.9083 1.89567 11.825 1.137C12.7417 0.378334 13.8 -0.000665789 15 8.77963e-07C16.3833 8.77963e-07 17.5627 0.487668 18.538 1.463C19.5133 2.43833 20.0007 3.61733 20 5C20 6.38333 19.5123 7.56267 18.537 8.538C17.5617 9.51333 16.3827 10.0007 15 10ZM15 8C15.8333 8 16.5417 7.70833 17.125 7.125C17.7083 6.54167 18 5.83333 18 5C18 4.16667 17.7083 3.45833 17.125 2.875C16.5417 2.29167 15.8333 2 15 2C14.1667 2 13.4583 2.29167 12.875 2.875C12.2917 3.45833 12 4.16667 12 5C12 5.83333 12.2917 6.54167 12.875 7.125C13.4583 7.70833 14.1667 8 15 8Z" fill="white"/>
</svg>
