<svg width="44" height="44" viewBox="0 0 44 44" fill="none" xmlns="http://www.w3.org/2000/svg">
<rect x="0.666504" width="42.6667" height="44" rx="5" fill="white"/>
<path d="M16.6653 23.8441H21.0071C21.3309 23.8441 21.7706 24.6221 22.4173 25.1031V24.5495C22.4173 24.5495 22.3965 24.2213 22.521 24.0227C22.6473 23.8236 22.9106 23.7706 22.9929 23.7706H27.3347C27.3347 23.7706 28.6457 23.5399 30.1033 22.8218L14.0783 22.982C15.4612 23.6309 16.6653 23.8441 16.6653 23.8441Z" fill="#1358DB"/>
<path d="M12.1301 23.5932C12.0224 23.5074 11.917 23.4186 11.814 23.3267C11.8876 23.4501 11.9955 23.5458 12.1301 23.5932ZM12.9255 11.2658H31.0101V22.3358C31.644 21.9681 31.9845 21.7175 32.2178 21.5569V10.6321C32.2176 10.4644 32.1538 10.3036 32.0405 10.1851C31.9271 10.0666 31.7733 10 31.6131 10H12.3208C11.9862 10 11.7151 10.2836 11.7151 10.6321V21.585C11.9448 21.7365 12.2746 21.9905 12.9255 22.3704V11.2658Z" fill="#1358DB"/>
<path d="M33.2577 21.3699C33.1019 21.2399 32.8863 21.2406 32.544 21.3699C32.4442 21.4079 32.3432 21.4712 32.2178 21.5569C31.9845 21.7175 31.644 21.9681 31.0101 22.3358C30.8144 22.4481 30.6011 22.569 30.3425 22.7046C30.2615 22.747 30.1835 22.7813 30.1033 22.8218C28.6457 23.5399 27.3347 23.7706 27.3347 23.7706H22.9929C22.9106 23.7706 22.6473 23.8239 22.521 24.023C22.3965 24.2219 22.4173 24.5495 22.4173 24.5495V25.1031C22.574 25.2193 22.7396 25.3237 22.9223 25.3895C24.2312 25.8564 25.1169 25.4493 25.5032 24.8821C25.9551 24.2169 26.1851 23.8444 26.6814 24.0389C27.1777 24.2334 26.6814 25.4977 26.0618 26.1469C25.4407 26.7965 24.6962 27.3154 23.6429 27.3154C23.2002 27.3154 22.7712 27.2459 22.4173 27.1671V31.8833C22.4173 33.2142 23.7692 33.9255 24.6986 33.9255C25.6277 33.9255 27.489 33.3744 28.3886 31.0383C29.2874 28.7028 28.3276 25.6208 28.3276 25.6208C28.3276 25.6208 29.7837 24.9379 31.3038 23.9333C32.8225 22.9281 33.2268 21.9864 33.2577 21.8543C33.2875 21.7212 33.4114 21.5002 33.2577 21.3699Z" fill="#1358DB"/>
<path d="M26.0618 26.1469C26.6814 25.4977 27.1777 24.2334 26.6814 24.0389C26.1851 23.8444 25.9551 24.2169 25.5032 24.8821C25.1169 25.4493 24.2312 25.8564 22.9223 25.3895C22.7396 25.3237 22.574 25.2193 22.4173 25.1031C21.7706 24.6221 21.3309 23.8441 21.0071 23.8441H16.6653C16.6653 23.8441 15.4609 23.6309 14.0783 22.982C13.9395 22.9165 13.7998 22.8517 13.658 22.7772C13.4108 22.6475 13.1666 22.5121 12.9255 22.3704C12.2746 21.9905 11.9448 21.7365 11.7151 21.585C11.6195 21.5217 11.5385 21.474 11.4557 21.4429C11.1149 21.3132 10.8977 21.3132 10.7425 21.4429C10.5882 21.5731 10.7115 21.7944 10.7425 21.9269C10.7663 22.0282 11.0145 22.6076 11.8137 23.3264C12.0925 23.5742 12.3874 23.8013 12.6964 24.0062C14.2151 25.012 15.6727 25.6931 15.6727 25.6931C15.6727 25.6931 14.7114 28.7745 15.6116 31.1106C16.5107 33.4464 18.371 34 19.301 34C20.2314 34 21.5832 33.284 21.5832 31.9541V26.9261C21.5832 26.9261 21.9264 27.0571 22.417 27.1665C22.7709 27.2453 23.1999 27.3148 23.6426 27.3148C24.6962 27.3151 25.4407 26.7965 26.0618 26.1469ZM25.2819 17.1318C24.5663 17.1319 23.8801 17.4294 23.3741 17.9587C22.8681 18.4881 22.5837 19.2061 22.5835 19.9548C22.5835 21.513 23.7915 22.7775 25.2819 22.7775C26.7708 22.7775 27.9784 21.513 27.9784 19.9548C27.9784 18.3964 26.7708 17.1318 25.2819 17.1318Z" fill="#1358DB"/>
<path d="M18.8852 17.1318C17.3957 17.1318 16.1883 18.3964 16.1883 19.9548C16.1883 21.513 17.3954 22.7775 18.8852 22.7775C20.3755 22.7775 21.5835 21.513 21.5835 19.9548C21.5835 18.3964 20.3755 17.1318 18.8852 17.1318Z" fill="#1358DB"/>
</svg>
