<svg width="161" height="170" viewBox="0 0 161 170" fill="none" xmlns="http://www.w3.org/2000/svg">
<path d="M18.9805 31.039C23.4832 14.2348 40.7558 4.26251 57.56 8.76517L86.485 16.5156C103.289 21.0183 113.262 38.2909 108.759 55.0951L98.5436 93.2191C94.0409 110.023 76.7683 119.996 59.9641 115.493L31.0391 107.743C14.2349 103.24 4.26257 85.9673 8.76523 69.1631L18.9805 31.039Z" stroke="#F3F5FF"/>
<path d="M64.3634 64.666C76.6649 52.3645 96.6096 52.3645 108.911 64.666L118.019 73.7738C130.32 86.0753 130.32 106.02 118.019 118.322L103.4 132.94C91.0986 145.242 71.154 145.242 58.8524 132.94L49.7447 123.832C37.4431 111.531 37.4431 91.5862 49.7446 79.2847L64.3634 64.666Z" stroke="#F3F5FF"/>
</svg>
