<svg width="103" height="103" viewBox="0 0 103 103" fill="none" xmlns="http://www.w3.org/2000/svg">
<rect x="51.1754" width="72.3729" height="72.3729" rx="19" transform="rotate(45 51.1754 0)" fill="#7CA8D1" fill-opacity="0.66"/>
<path fill-rule="evenodd" clip-rule="evenodd" d="M28.5 29.625C28.5 27.7353 29.2507 25.9231 30.5869 24.5869C31.9231 23.2507 33.7353 22.5 35.625 22.5H40.375C42.2647 22.5 44.0769 23.2507 45.4131 24.5869C46.7493 25.9231 47.5 27.7353 47.5 29.625V34.375C47.5 36.2647 46.7493 38.0769 45.4131 39.4131C44.0769 40.7493 42.2647 41.5 40.375 41.5V46.25H66.5C67.1299 46.25 67.734 46.5002 68.1794 46.9456C68.6248 47.391 68.875 47.9951 68.875 48.625V53.375C68.875 54.0049 68.6248 54.609 68.1794 55.0544C67.734 55.4998 67.1299 55.75 66.5 55.75C65.8701 55.75 65.266 55.4998 64.8206 55.0544C64.3752 54.609 64.125 54.0049 64.125 53.375V51H40.375V53.375C40.375 54.0049 40.1248 54.609 39.6794 55.0544C39.234 55.4998 38.6299 55.75 38 55.75C37.3701 55.75 36.766 55.4998 36.3206 55.0544C35.8752 54.609 35.625 54.0049 35.625 53.375V51H11.875V53.375C11.875 54.0049 11.6248 54.609 11.1794 55.0544C10.734 55.4998 10.1299 55.75 9.5 55.75C8.87011 55.75 8.26602 55.4998 7.82062 55.0544C7.37522 54.609 7.125 54.0049 7.125 53.375V48.625C7.125 47.9951 7.37522 47.391 7.82062 46.9456C8.26602 46.5002 8.87011 46.25 9.5 46.25H35.625V41.5C33.7353 41.5 31.9231 40.7493 30.5869 39.4131C29.2507 38.0769 28.5 36.2647 28.5 34.375V29.625ZM0 67.625C0 65.7353 0.750667 63.9231 2.08686 62.5869C3.42306 61.2507 5.23533 60.5 7.125 60.5H11.875C13.7647 60.5 15.5769 61.2507 16.9131 62.5869C18.2493 63.9231 19 65.7353 19 67.625V72.375C19 74.2647 18.2493 76.0769 16.9131 77.4131C15.5769 78.7493 13.7647 79.5 11.875 79.5H7.125C5.23533 79.5 3.42306 78.7493 2.08686 77.4131C0.750667 76.0769 0 74.2647 0 72.375L0 67.625ZM28.5 67.625C28.5 65.7353 29.2507 63.9231 30.5869 62.5869C31.9231 61.2507 33.7353 60.5 35.625 60.5H40.375C42.2647 60.5 44.0769 61.2507 45.4131 62.5869C46.7493 63.9231 47.5 65.7353 47.5 67.625V72.375C47.5 74.2647 46.7493 76.0769 45.4131 77.4131C44.0769 78.7493 42.2647 79.5 40.375 79.5H35.625C33.7353 79.5 31.9231 78.7493 30.5869 77.4131C29.2507 76.0769 28.5 74.2647 28.5 72.375V67.625ZM57 67.625C57 65.7353 57.7507 63.9231 59.0869 62.5869C60.4231 61.2507 62.2353 60.5 64.125 60.5H68.875C70.7647 60.5 72.5769 61.2507 73.9131 62.5869C75.2493 63.9231 76 65.7353 76 67.625V72.375C76 74.2647 75.2493 76.0769 73.9131 77.4131C72.5769 78.7493 70.7647 79.5 68.875 79.5H64.125C62.2353 79.5 60.4231 78.7493 59.0869 77.4131C57.7507 76.0769 57 74.2647 57 72.375V67.625Z" fill="#002255"/>
</svg>
