<svg width="103" height="103" viewBox="0 0 103 103" fill="none" xmlns="http://www.w3.org/2000/svg">
<rect x="51.1754" width="72.3729" height="72.3729" rx="19" transform="rotate(45 51.1754 0)" fill="#7CA8D1" fill-opacity="0.66"/>
<g clip-path="url(#clip0_376_1399)">
<path d="M36.822 14.3132C37.1808 14.1083 37.5868 14.0005 38 14.0005C38.4132 14.0005 38.8192 14.1083 39.178 14.3132L56.9905 24.4925C57.354 24.7001 57.6562 25.0001 57.8664 25.3622C58.0766 25.7242 58.1874 26.1353 58.1875 26.554V45.5302L74.803 55.0302C75.1651 55.2371 75.4664 55.5356 75.6765 55.8958C75.8866 56.256 75.9982 56.6652 76 57.0822V77.4407C75.9999 77.8593 75.8891 78.2705 75.6789 78.6325C75.4687 78.9946 75.1665 79.2946 74.803 79.5022L56.9905 89.6815C56.6317 89.8864 56.2257 89.9942 55.8125 89.9942C55.3993 89.9942 54.9933 89.8864 54.6345 89.6815L38 80.1815L21.3655 89.6862C21.0067 89.8912 20.6007 89.999 20.1875 89.999C19.7743 89.999 19.3683 89.8912 19.0095 89.6862L1.197 79.507C0.833496 79.2993 0.531334 78.9993 0.321126 78.6373C0.110918 78.2753 0.000135028 77.8641 0 77.4455L0 57.087C0.000135028 56.6683 0.110918 56.2572 0.321126 55.8952C0.531334 55.5331 0.833496 55.2331 1.197 55.0255L17.8125 45.5302V26.554C17.8126 26.1353 17.9234 25.7242 18.1336 25.3622C18.3438 25.0001 18.646 24.7001 19.0095 24.4925L36.822 14.3132ZM20.1875 49.6437L7.163 57.087L20.1875 64.5302L33.212 57.087L20.1875 49.6437ZM35.625 61.1815L22.5625 68.6437V83.5302L35.625 76.068V61.1815ZM40.375 76.068L53.4375 83.5302V68.6437L40.375 61.1815V76.068ZM42.788 57.087L55.8125 64.5302L68.837 57.087L55.8125 49.6437L42.788 57.087ZM53.4375 45.5302V30.6437L40.375 38.1107V52.9972L53.4375 45.5302ZM35.625 52.9972V38.1107L22.5625 30.6437V45.5302L35.625 52.9972ZM24.9755 26.554L38 33.9972L51.0245 26.554L38 19.1107L24.9755 26.554ZM71.25 61.1815L58.1875 68.6437V83.5302L71.25 76.068V61.1815ZM17.8125 83.5302V68.6437L4.75 61.1815V76.068L17.8125 83.5302Z" fill="#002255"/>
</g>
<defs>
<clipPath id="clip0_376_1399">
<rect width="76" height="76" fill="white" transform="translate(0 14)"/>
</clipPath>
</defs>
</svg>
