<svg width="103" height="103" viewBox="0 0 103 103" fill="none" xmlns="http://www.w3.org/2000/svg">
<rect x="51.1754" width="72.3729" height="72.3729" rx="19" transform="rotate(45 51.1754 0)" fill="#7CA8D1" fill-opacity="0.66"/>
<g clip-path="url(#clip0_376_1396)">
<path d="M10.4687 14C8.7531 14 7.10775 14.6815 5.89462 15.8947C4.6815 17.1078 3.99997 18.7531 3.99997 20.4688L3.99997 29.0938C3.99997 30.8094 4.6815 32.4547 5.89462 33.6678C7.10775 34.881 8.7531 35.5625 10.4687 35.5625H44.9687C46.6843 35.5625 48.3297 34.881 49.5428 33.6678C50.7559 32.4547 51.4375 30.8094 51.4375 29.0938V20.4688C51.4375 18.7531 50.7559 17.1078 49.5428 15.8947C48.3297 14.6815 46.6843 14 44.9687 14H10.4687ZM36.0289 24.4664C35.8777 24.3157 35.7747 24.1234 35.733 23.914C35.6912 23.7046 35.7126 23.4875 35.7943 23.2903C35.8761 23.093 36.0146 22.9245 36.1922 22.8061C36.3699 22.6876 36.5787 22.6246 36.7922 22.625H40.2077C40.4212 22.6246 40.6301 22.6876 40.8077 22.8061C40.9854 22.9245 41.1238 23.093 41.2056 23.2903C41.2874 23.4875 41.3087 23.7046 41.2669 23.914C41.2252 24.1234 41.1222 24.3157 40.971 24.4664L39.2633 26.1742C39.1631 26.2746 39.0442 26.3542 38.9132 26.4086C38.7822 26.463 38.6418 26.4909 38.5 26.4909C38.3582 26.4909 38.2177 26.463 38.0868 26.4086C37.9558 26.3542 37.8368 26.2746 37.7367 26.1742L36.0289 24.4664ZM3.99997 48.5C3.99997 46.2125 4.90867 44.0187 6.52617 42.4012C8.14367 40.7837 10.3375 39.875 12.625 39.875H64.375C66.6625 39.875 68.8563 40.7837 70.4738 42.4012C72.0913 44.0187 73 46.2125 73 48.5V70.0625C73 72.35 72.0913 74.5438 70.4738 76.1613C68.8563 77.7788 66.6625 78.6875 64.375 78.6875H12.625C10.3375 78.6875 8.14367 77.7788 6.52617 76.1613C4.90867 74.5438 3.99997 72.35 3.99997 70.0625V48.5ZM8.31247 61.4375V70.0625C8.31247 71.2062 8.76682 72.3031 9.57557 73.1119C10.3843 73.9206 11.4812 74.375 12.625 74.375H64.375C65.5187 74.375 66.6156 73.9206 67.4244 73.1119C68.2331 72.3031 68.6875 71.2062 68.6875 70.0625V61.4375H8.31247ZM68.6875 57.125V48.5C68.6875 47.3563 68.2331 46.2594 67.4244 45.4506C66.6156 44.6419 65.5187 44.1875 64.375 44.1875H12.625C11.4812 44.1875 10.3843 44.6419 9.57557 45.4506C8.76682 46.2594 8.31247 47.3563 8.31247 48.5V57.125H68.6875ZM12.625 50.6562C12.625 50.0844 12.8521 49.5359 13.2565 49.1315C13.6609 48.7272 14.2093 48.5 14.7812 48.5H53.5937C54.1656 48.5 54.714 48.7272 55.1184 49.1315C55.5228 49.5359 55.75 50.0844 55.75 50.6562C55.75 51.2281 55.5228 51.7766 55.1184 52.181C54.714 52.5853 54.1656 52.8125 53.5937 52.8125H14.7812C14.2093 52.8125 13.6609 52.5853 13.2565 52.181C12.8521 51.7766 12.625 51.2281 12.625 50.6562ZM12.625 67.9062C12.625 67.3344 12.8521 66.7859 13.2565 66.3815C13.6609 65.9772 14.2093 65.75 14.7812 65.75H40.6562C41.2281 65.75 41.7765 65.9772 42.1809 66.3815C42.5853 66.7859 42.8125 67.3344 42.8125 67.9062C42.8125 68.4781 42.5853 69.0266 42.1809 69.431C41.7765 69.8353 41.2281 70.0625 40.6562 70.0625H14.7812C14.2093 70.0625 13.6609 69.8353 13.2565 69.431C12.8521 69.0266 12.625 68.4781 12.625 67.9062Z" fill="#002255"/>
</g>
<defs>
<clipPath id="clip0_376_1396">
<rect width="69" height="69" fill="white" transform="translate(3.99997 14)"/>
</clipPath>
</defs>
</svg>
