<svg width="103" height="103" viewBox="0 0 103 103" fill="none" xmlns="http://www.w3.org/2000/svg">
<rect x="51.1754" width="72.3729" height="72.3729" rx="19" transform="rotate(45 51.1754 0)" fill="#7CA8D1" fill-opacity="0.66"/>
<path d="M19 58.25C19 56.9902 19.5004 55.782 20.3912 54.8912C21.282 54.0004 22.4902 53.5 23.75 53.5C25.0098 53.5 26.218 54.0004 27.1088 54.8912C27.9996 55.782 28.5 56.9902 28.5 58.25V63C28.5 64.2598 27.9996 65.468 27.1088 66.3588C26.218 67.2496 25.0098 67.75 23.75 67.75C22.4902 67.75 21.282 67.2496 20.3912 66.3588C19.5004 65.468 19 64.2598 19 63V58.25ZM47.5 39.25C47.5 37.9902 48.0004 36.782 48.8912 35.8912C49.782 35.0004 50.9902 34.5 52.25 34.5C53.5098 34.5 54.718 35.0004 55.6088 35.8912C56.4996 36.782 57 37.9902 57 39.25V63C57 64.2598 56.4996 65.468 55.6088 66.3588C54.718 67.2496 53.5098 67.75 52.25 67.75C50.9902 67.75 49.782 67.2496 48.8912 66.3588C48.0004 65.468 47.5 64.2598 47.5 63V39.25ZM33.25 48.75C33.25 47.4902 33.7504 46.282 34.6412 45.3912C35.532 44.5004 36.7402 44 38 44C39.2598 44 40.468 44.5004 41.3588 45.3912C42.2496 46.282 42.75 47.4902 42.75 48.75V63C42.75 64.2598 42.2496 65.468 41.3588 66.3588C40.468 67.2496 39.2598 67.75 38 67.75C36.7402 67.75 35.532 67.2496 34.6412 66.3588C33.7504 65.468 33.25 64.2598 33.25 63V48.75Z" fill="#002255"/>
<path d="M20.5834 12.3335H15.8334C13.3138 12.3335 10.8975 13.3344 9.11586 15.116C7.33426 16.8976 6.33337 19.3139 6.33337 21.8335V71.7085C6.33337 74.2281 7.33426 76.6444 9.11586 78.426C10.8975 80.2076 13.3138 81.2085 15.8334 81.2085H63.3334C65.8529 81.2085 68.2693 80.2076 70.0509 78.426C71.8325 76.6444 72.8334 74.2281 72.8334 71.7085V21.8335C72.8334 19.3139 71.8325 16.8976 70.0509 15.116C68.2693 13.3344 65.8529 12.3335 63.3334 12.3335H58.5834V17.0835H63.3334C64.5932 17.0835 65.8013 17.5839 66.6921 18.4747C67.5829 19.3655 68.0834 20.5737 68.0834 21.8335V71.7085C68.0834 72.9683 67.5829 74.1765 66.6921 75.0673C65.8013 75.958 64.5932 76.4585 63.3334 76.4585H15.8334C14.5736 76.4585 13.3654 75.958 12.4746 75.0673C11.5838 74.1765 11.0834 72.9683 11.0834 71.7085V21.8335C11.0834 20.5737 11.5838 19.3655 12.4746 18.4747C13.3654 17.5839 14.5736 17.0835 15.8334 17.0835H20.5834V12.3335Z" fill="#002255"/>
<path d="M46.7084 10.75C47.3383 10.75 47.9424 11.0002 48.3878 11.4456C48.8332 11.891 49.0834 12.4951 49.0834 13.125V17.875C49.0834 18.5049 48.8332 19.109 48.3878 19.5544C47.9424 19.9998 47.3383 20.25 46.7084 20.25H32.4584C31.8285 20.25 31.2244 19.9998 30.779 19.5544C30.3336 19.109 30.0834 18.5049 30.0834 17.875V13.125C30.0834 12.4951 30.3336 11.891 30.779 11.4456C31.2244 11.0002 31.8285 10.75 32.4584 10.75H46.7084ZM32.4584 6C30.5687 6 28.7564 6.75067 27.4202 8.08686C26.084 9.42306 25.3334 11.2353 25.3334 13.125V17.875C25.3334 19.7647 26.084 21.5769 27.4202 22.9131C28.7564 24.2493 30.5687 25 32.4584 25H46.7084C48.598 25 50.4103 24.2493 51.7465 22.9131C53.0827 21.5769 53.8334 19.7647 53.8334 17.875V13.125C53.8334 11.2353 53.0827 9.42306 51.7465 8.08686C50.4103 6.75067 48.598 6 46.7084 6H32.4584Z" fill="#002255"/>
</svg>
