<svg width="30" height="24" viewBox="0 0 30 24" fill="none" xmlns="http://www.w3.org/2000/svg">
<path d="M5.63143 12.1578C2.26714 12.1578 0 14.5198 0 18.0195C0 21.1689 2.60572 23.7926 6.135 23.7926C10.0007 23.7926 12.8571 20.6433 12.8571 15.8327C12.8571 4.89873 4.95857 0.525123 0 -0.000488281V4.81004C3.36214 5.42218 7.14214 8.83324 7.31143 12.5969C7.14214 12.5104 6.47143 12.1578 5.63143 12.1578ZM22.7721 12.1578C19.4121 12.1578 17.1429 14.5198 17.1429 18.0195C17.1429 21.1689 19.7486 23.7926 23.2779 23.7926C27.1436 23.7926 30 20.6433 30 15.8327C30 4.89873 22.1014 0.525123 17.1429 -0.000488281V4.81004C20.505 5.42218 24.285 8.83324 24.4543 12.5969C24.285 12.5104 23.6143 12.1578 22.7721 12.1578Z" fill="#1358DB"/>
</svg>
