<svg width="30" height="24" viewBox="0 0 30 24" fill="none" xmlns="http://www.w3.org/2000/svg">
<path d="M24.3686 12.2617C27.7329 12.2617 30 14.6234 30 18.1227C30 21.2716 27.3943 23.895 23.865 23.895C19.9993 23.895 17.1429 20.746 17.1429 15.9361C17.1429 5.00356 25.0414 0.630523 30 0.10498V4.91489C26.6379 5.52694 22.8579 8.93756 22.6886 12.7007C22.8579 12.6142 23.5286 12.2617 24.3686 12.2617ZM7.22786 12.2617C10.5879 12.2617 12.8571 14.6234 12.8571 18.1227C12.8571 21.2716 10.2514 23.895 6.72214 23.895C2.85643 23.895 0 20.746 0 15.9361C0 5.00356 7.89857 0.630523 12.8571 0.10498V4.91489C9.495 5.52694 5.715 8.93756 5.54571 12.7007C5.715 12.6142 6.38571 12.2617 7.22786 12.2617Z" fill="#1358DB"/>
</svg>
