<svg width="53" height="30" viewBox="0 0 53 30" fill="none" xmlns="http://www.w3.org/2000/svg">
<path d="M0 30C0.361364 25.7634 1.67673 21.8634 3.94609 18.2999C6.21545 14.7365 9.23645 11.9055 13.0091 9.80698L8.55227 2.2049C8.31136 1.84855 8.25114 1.47241 8.37159 1.07647C8.49205 0.680524 8.75303 0.383568 9.15455 0.185597C9.47576 -0.0123736 9.83712 -0.0519671 10.2386 0.0668154C10.6402 0.185598 10.9614 0.423162 11.2023 0.779509L15.6591 8.38159C19.1121 6.9562 22.7258 6.2435 26.5 6.2435C30.2742 6.2435 33.8879 6.9562 37.3409 8.38159L41.7977 0.779509C42.0386 0.423162 42.3599 0.185598 42.7614 0.0668154C43.1629 -0.0519671 43.5242 -0.0123736 43.8455 0.185597C44.247 0.383568 44.508 0.680524 44.6284 1.07647C44.7489 1.47241 44.6886 1.84855 44.4477 2.2049L39.9909 9.80698C43.7652 11.9055 46.7862 14.7365 49.0539 18.2999C51.3217 21.8634 52.637 25.7634 53 30H0ZM14.4545 23.467C15.2977 23.467 16.0108 23.1795 16.5938 22.6046C17.1768 22.0297 17.4675 21.3273 17.4659 20.4974C17.4659 19.6659 17.1744 18.9627 16.5914 18.3878C16.0084 17.8129 15.2961 17.5263 14.4545 17.5278C13.6114 17.5278 12.8983 17.8153 12.3153 18.3902C11.7323 18.9651 11.4416 19.6675 11.4432 20.4974C11.4432 21.3289 11.7347 22.0321 12.3177 22.607C12.9007 23.1819 13.613 23.4685 14.4545 23.467ZM38.5455 23.467C39.3886 23.467 40.1017 23.1795 40.6847 22.6046C41.2677 22.0297 41.5584 21.3273 41.5568 20.4974C41.5568 19.6659 41.2653 18.9627 40.6823 18.3878C40.0993 17.8129 39.387 17.5263 38.5455 17.5278C37.7023 17.5278 36.9892 17.8153 36.4062 18.3902C35.8232 18.9651 35.5325 19.6675 35.5341 20.4974C35.5341 21.3289 35.8256 22.0321 36.4086 22.607C36.9916 23.1819 37.7039 23.4685 38.5455 23.467Z" fill="#1358DB"/>
</svg>
