<svg width="149" height="142" viewBox="0 0 149 142" fill="none" xmlns="http://www.w3.org/2000/svg">
<path d="M38.293 132.163C38.53 134.833 33.568 136.295 30.996 132.163C28.216 128.513 30.26 120.037 38.293 117.59C45.859 114.693 57.831 120.254 60.184 132.163C63.182 143.614 54.129 159.062 38.293 161.311C22.949 164.406 3.93498 151.872 1.80798 132.163C-1.41602 112.935 14.679 90.469 38.293 88.442C61.449 85.125 87.445 104.672 89.372 132.163C92.801 159.173 69.719 188.654 38.293 190.458C7.33098 193.997 -25.6701 167.432 -27.3797 132.163C-31.0213 97.353 -0.939014 60.8955 38.293 59.2948C77.03 55.5565 117.078 89.094 118.56 132.163C122.424 174.751 85.314 218.227 38.293 219.605C-8.25502 223.566 -55.289 183.014 -56.5677 132.163C-60.6309 81.794 -16.538 31.3086 38.293 30.1474C92.634 25.965 146.692 73.5353 147.748 132.163C152.038 190.333 100.913 247.795 38.293 248.753C-23.8355 253.139 -84.9218 198.591 -85.7557 132.163C-90.2497 66.2161 -32.1286 1.7356 38.293 1" stroke="white" stroke-linecap="round"/>
</svg>
