<svg width="69" height="61" viewBox="0 0 69 61" fill="none" xmlns="http://www.w3.org/2000/svg">
<path d="M47.7482 28.7853L48.0568 27.3174L47.7482 28.7853ZM69 7L52.9105 0.586993L55.4014 17.7274L69 7ZM3.45786 60.353C3.67449 59.4585 3.94401 58.5025 4.26878 57.5008L1.41502 56.5755C1.06794 57.6461 0.777472 58.6751 0.542136 59.647L3.45786 60.353ZM6.47712 51.941C7.29295 50.2076 8.24934 48.4364 9.35276 46.6864L6.81506 45.0863C5.64222 46.9465 4.62752 48.826 3.76273 50.6635L6.47712 51.941ZM12.8588 41.8567C14.1127 40.3559 15.4898 38.9201 16.9946 37.5912L15.0088 35.3425C13.3813 36.7797 11.8994 38.3259 10.5565 39.9334L12.8588 41.8567ZM21.7374 34.0647C23.3779 33.0541 25.1346 32.1713 27.0123 31.4501L25.9366 28.6496C23.8779 29.4403 21.955 30.4071 20.1639 31.5105L21.7374 34.0647ZM32.6776 29.8642C34.5337 29.5258 36.4918 29.3359 38.5561 29.3199L38.5327 26.32C36.2984 26.3373 34.168 26.543 32.1395 26.9129L32.6776 29.8642ZM44.4902 29.7314C45.4528 29.8689 46.4359 30.0421 47.4395 30.2532L48.0568 27.3174C46.9907 27.0932 45.9432 26.9085 44.9143 26.7615L44.4902 29.7314ZM47.4395 30.2532C48.5681 30.4905 49.6119 30.7436 50.5754 31.0104L51.3759 28.1191C50.3462 27.8341 49.2409 27.5664 48.0568 27.3174L47.4395 30.2532ZM56.455 33.2808C58.8091 34.5818 59.8644 35.9177 60.2354 37.0742L63.092 36.158C62.4055 34.0175 60.65 32.1715 57.9062 30.6551L56.455 33.2808ZM58.9003 41.8692C57.8181 43.2671 56.2192 44.6365 54.3012 45.8385L55.8942 48.3806C58.0199 47.0485 59.9167 45.4571 61.2725 43.7056L58.9003 41.8692ZM48.6296 48.5207C46.5395 49.2287 44.45 49.6458 42.5715 49.7001L42.6581 52.6988C44.8951 52.6342 47.283 52.1442 49.592 51.3621L48.6296 48.5207ZM37.2778 48.339C36.6591 47.8429 36.1706 47.1879 35.8556 46.3197L33.0355 47.3429C33.5366 48.724 34.3494 49.8361 35.4008 50.6793L37.2778 48.339ZM35.8556 46.3197C35.574 45.5436 35.3893 44.7249 35.2974 43.867L32.3144 44.1868C32.4304 45.268 32.6659 46.3244 33.0355 47.3429L35.8556 46.3197ZM35.7301 38.6713C36.1341 37.024 36.7738 35.3111 37.6189 33.5694L34.9199 32.2597C33.9992 34.1571 33.2792 36.0698 32.8164 37.9569L35.7301 38.6713ZM40.4089 28.7779C41.4286 27.271 42.5699 25.7801 43.806 24.3306L41.5233 22.384C40.2205 23.9117 39.0109 25.4908 37.9243 27.0965L40.4089 28.7779ZM47.6564 20.2431C49.013 18.9355 50.4309 17.6942 51.8841 16.5419L50.0202 14.1912C48.49 15.4045 46.9995 16.7096 45.5745 18.0831L47.6564 20.2431ZM56.4497 13.2954C58.0848 12.2642 59.7231 11.3717 61.3306 10.6441L60.0937 7.91102C58.3462 8.70188 56.5867 9.66226 54.8494 10.7579L56.4497 13.2954Z" fill="#fff"/>
</svg>
