<svg xmlns="http://www.w3.org/2000/svg" id="ba655a8f-b4ad-4c33-a1da-708fab31f9a8" data-name="Layer 1" height="535.58" width="847.02" viewBox="0 0 847.02014 535.57534"><title>reviewed_docs</title><rect y="515.79" x="641.02" height="2" fill="#3f3d56" width="206"></rect><polygon points="765.97 223.57 765.97 237.36 775.62 252.53 782.52 224.95" fill="#a0616a"></polygon><path fill="#e6e6e6" d="m941.08 283.06l7.5403-2.153s11.765 2.153 11.765 15.942 2.7578 68.946 2.7578 68.946l-2.7578 31.715s4.1368 1.3789 2.7578 5.5157-4.13 13.77-5.51 12.39-1.3789-4.1368-1.3789-4.1368-22.063 4.1368-20.684 0 1.3789-13.789 2.7578-13.789-1.3789-41.368-1.3789-41.368z" transform="translate(-176.49 -182.21)"></path><polygon points="639.8 218.74 657.73 240.81 679.79 267 686.68 235.29 674.36 233.36 661.86 214.61" fill="#a0616a"></polygon><path fill="#2f2e41" d="m861.1 393.37s-20.684 11.031-6.8946 85.493l4.1368 74.462 2.7578 122.72h27.58l5.5157-121.34 16.547-77.219 26.199 68.946-9.6524 122.72 37.231 5.5157 12.41-137.89-22.063-102.04-16.547-28.957-3.4473-7.584z" transform="translate(-176.49 -182.21)"></path><path fill="#2f2e41" d="m865.24 671.91l-4.1368 12.41s-5.5157 22.063 13.789 19.305 12.41-15.16 12.41-15.16l-1.3789-16.547z" transform="translate(-176.49 -182.21)"></path><path fill="#2f2e41" d="m928.67 667.78s-4.13 13.79-4.13 20.68 2.7578 9.8946 2.7578 9.8946 78.598 5.2735 77.219-1.6211-9.6524-9.6524-9.6524-9.6524l-19.3-4.14-13.79-11.03-27.578-6.8946z" transform="translate(-176.49 -182.21)"></path><circle cy="40.173" cx="720.47" r="26.199" fill="#a0616a"></circle><polygon points="739.77 51.204 743.91 89.814 734.26 107.74 710.81 81.541 708.06 59.478" fill="#a0616a"></polygon><path fill="#e6e6e6" d="m907.99 273.41l-21.627-17.198-4.5725 6.1666-34.473 13.789 1.3789 60.672s1.3789 51.02 9.6524 56.536l-3.4473 4.8262 82.046 3.4473v-37.24l17.926-79.977-31.715-17.926-3.947-5.5827z" transform="translate(-176.49 -182.21)"></path><path fill="#e6e6e6" d="m852.83 278.92l-2.0085-4.1607-4.8861 1.4029s-9.6524 4.1368-16.547 22.063-26.199 57.915-26.199 57.915-5.5157 6.8946-1.3789 13.789 8.2735 22.063 8.2735 22.063-4.1368-1.3789-1.3789 4.1368 2.7578 11.031 11.031 9.6524 24.821-5.5157 23.442-9.6524-2.7578-11.031-5.5157-11.031-6.8946-20.684-6.8946-20.684l2.7578-11.031 20.684-24.821z" transform="translate(-176.49 -182.21)"></path><path fill="#2f2e41" d="m899.71 203.08s-4.1368 0-4.1368-1.3789-14.423-0.4402-20.311 5.985-4.5092-3.2272-4.5092-3.2272-15.168-6.8946-2.7578-13.789l1.3789 1.3789s2.7578-4.1368 12.41-5.5157l-1.3789-1.3789s0-1.3789 6.8946-1.3789 24.821-6.8946 26.199 8.2735 11.031-4.1368 11.031 9.6524-1.3789 20.684-1.3789 20.684-2.7578-6.8946-8.2735-2.7578-15.16-16.53-15.16-16.53z" transform="translate(-176.49 -182.21)"></path><ellipse cy="462.54" cx="106.5" rx="106.5" ry="11.005" fill="#e6e6e6"></ellipse><rect y="302.14" x="41.89" height="160.46" fill="#e6e6e6" width="129.22"></rect><rect y="358.17" x="60.561" height="4.26" fill="#fff" width="92.301"></rect><rect y="373.08" x="60.561" height="4.26" fill="#fff" width="92.301"></rect><rect y="387.99" x="60.561" height="4.26" fill="#fff" width="92.301"></rect><rect y="402.9" x="60.561" height="4.26" fill="#fff" width="92.301"></rect><path fill="#e6e6e6" d="m308.35 417.69a25.283 25.283 0 1 1 -3.9184 -13.544 25.352 25.352 0 0 1 3.92 13.54z" transform="translate(-176.49 -182.21)"></path><path fill="#fff" d="m304.43 404.14l-24.958 24.953c-1.5686-2.4285-10.308-13.714-10.308-13.714a35.364 35.364 0 0 1 3.5773 -3.1578l7.2467 9.6623 21.51-21.51a25.249 25.249 0 0 1 2.93 3.77z" transform="translate(-176.49 -182.21)"></path><ellipse cy="456.09" cx="451.12" rx="106.5" ry="11.005" fill="#e6e6e6"></ellipse><rect y="295.68" x="386.51" height="160.46" fill="#e6e6e6" width="129.22"></rect><rect y="385" x="405.18" height="4.26" fill="#fff" width="92.301"></rect><rect y="399.91" x="405.18" height="4.26" fill="#fff" width="92.301"></rect><rect y="414.82" x="405.18" height="4.26" fill="#fff" width="92.301"></rect><rect y="429.73" x="405.18" height="4.26" fill="#fff" width="92.301"></rect><path fill="#fff" d="m609.94 535h-29.32a102.57 102.57 0 0 1 0 -34.965h29.326a62.915 62.915 0 0 0 -0.01 34.96z" transform="translate(-176.49 -182.21)"></path><rect y="321.1" x="445.65" height="3.55" fill="#fff" width="53.96"></rect><rect y="333.88" x="445.65" height="3.55" fill="#fff" width="53.96"></rect><rect y="346.66" x="445.65" height="3.55" fill="#fff" width="53.96"></rect><rect y="359.44" x="445.65" height="3.55" fill="#fff" width="53.96"></rect><path fill="#e6e6e6" d="m652.96 412.06a25.283 25.283 0 1 1 -3.9184 -13.544 25.352 25.352 0 0 1 3.92 13.54z" transform="translate(-176.49 -182.21)"></path><path fill="#fff" d="m649.04 398.52l-24.958 24.953c-1.5686-2.4285-10.308-13.714-10.308-13.714a35.365 35.365 0 0 1 3.5773 -3.1578l7.2467 9.6623 21.519-21.519a25.249 25.249 0 0 1 2.92 3.78z" transform="translate(-176.49 -182.21)"></path><ellipse cy="522.68" cx="280.78" rx="124.82" ry="12.898" fill="#3f3d56"></ellipse><rect y="337.53" x="204.23" height="188.06" fill="#002356" width="151.44"></rect><rect y="377.47" x="225.86" height="4.9927" fill="#fff" width="108.17"></rect><rect y="394.95" x="225.86" height="4.9927" fill="#fff" width="108.17"></rect><rect y="412.42" x="225.86" height="4.9927" fill="#fff" width="108.17"></rect><rect y="429.9" x="225.86" height="4.9927" fill="#fff" width="108.17"></rect><rect y="447.37" x="225.86" height="4.9927" fill="#fff" width="108.17"></rect><rect y="465.68" x="251.66" height="19.971" fill="#fff" width="56.583"></rect><path fill="#002356" d="m494.98 438.94a37.994 37.994 0 1 1 -5.8883 -20.353 38.097 38.097 0 0 1 5.89 20.35z" transform="translate(-176.49 -182.21)"></path><path fill="#fff" d="m489.09 418.58l-37.505 37.498c-2.3572-3.6493-15.49-20.609-15.49-20.609a53.142 53.142 0 0 1 5.3757 -4.7453l10.89 14.52 32.337-32.337a37.942 37.942 0 0 1 4.39 5.68z" transform="translate(-176.49 -182.21)"></path></svg>