<svg width="32" height="40" viewBox="0 0 32 40" fill="none" xmlns="http://www.w3.org/2000/svg">
<path d="M6.41666 35.3334C6.92499 35.3334 7.41251 35.1315 7.77195 34.772C8.1314 34.4126 8.33333 33.9251 8.33333 33.4168C8.33333 32.9084 8.1314 32.4209 7.77195 32.0615C7.41251 31.702 6.92499 31.5001 6.41666 31.5001C5.90833 31.5001 5.42082 31.702 5.06137 32.0615C4.70193 32.4209 4.5 32.9084 4.5 33.4168C4.5 33.9251 4.70193 34.4126 5.06137 34.772C5.42082 35.1315 5.90833 35.3334 6.41666 35.3334ZM8.33333 21.9129V27.9945C9.61269 28.4467 10.691 29.3365 11.3777 30.5069C12.0644 31.6772 12.3152 33.0526 12.0858 34.39C11.8564 35.7274 11.1616 36.9406 10.1242 37.8153C9.0868 38.6899 7.77357 39.1696 6.41666 39.1696C5.05975 39.1696 3.74653 38.6899 2.70912 37.8153C1.6717 36.9406 0.976902 35.7274 0.747524 34.39C0.518147 33.0526 0.768963 31.6772 1.45564 30.5069C2.14232 29.3365 3.22063 28.4467 4.5 27.9945V12.0057C3.22063 11.5535 2.14232 10.6636 1.45564 9.49329C0.768963 8.32296 0.518147 6.94754 0.747524 5.61016C0.976902 4.27277 1.6717 3.05954 2.70912 2.18491C3.74653 1.31028 5.05975 0.830566 6.41666 0.830566C7.77357 0.830566 9.0868 1.31028 10.1242 2.18491C11.1616 3.05954 11.8564 4.27277 12.0858 5.61016C12.3152 6.94754 12.0644 8.32296 11.3777 9.49329C10.691 10.6636 9.61269 11.5535 8.33333 12.0057V16.4907C8.93133 16.2798 9.57341 16.1648 10.2442 16.1629L21.8152 16.1514C22.3232 16.1509 22.8102 15.9488 23.1692 15.5894C23.5282 15.23 23.7299 14.7428 23.7299 14.2348V12.0268C22.4426 11.5857 21.3534 10.7026 20.6557 9.53428C19.9581 8.36598 19.6972 6.98817 19.9195 5.6457C20.1418 4.30323 20.8328 3.08304 21.8698 2.20196C22.9068 1.32088 24.2226 0.83598 25.5833 0.833418C26.9344 0.832855 28.2425 1.30805 29.2782 2.17564C30.3138 3.04323 31.0109 4.24781 31.2472 5.57805C31.4834 6.90828 31.2436 8.27922 30.57 9.45035C29.8964 10.6215 28.8319 11.518 27.5632 11.9827V14.2348C27.5632 15.7588 26.9582 17.2204 25.8811 18.2986C24.8041 19.3768 23.343 19.9832 21.819 19.9848L10.2481 19.9963C9.74008 19.9968 9.25306 20.1989 8.89403 20.5583C8.535 20.9177 8.33333 21.4049 8.33333 21.9129ZM6.41666 8.50008C6.92499 8.50008 7.41251 8.29815 7.77195 7.93871C8.1314 7.57926 8.33333 7.09175 8.33333 6.58342C8.33333 6.07509 8.1314 5.58757 7.77195 5.22813C7.41251 4.86869 6.92499 4.66675 6.41666 4.66675C5.90833 4.66675 5.42082 4.86869 5.06137 5.22813C4.70193 5.58757 4.5 6.07509 4.5 6.58342C4.5 7.09175 4.70193 7.57926 5.06137 7.93871C5.42082 8.29815 5.90833 8.50008 6.41666 8.50008ZM25.5833 8.50008C26.0917 8.50008 26.5792 8.29815 26.9386 7.93871C27.2981 7.57926 27.5 7.09175 27.5 6.58342C27.5 6.07509 27.2981 5.58757 26.9386 5.22813C26.5792 4.86869 26.0917 4.66675 25.5833 4.66675C25.075 4.66675 24.5875 4.86869 24.228 5.22813C23.8686 5.58757 23.6667 6.07509 23.6667 6.58342C23.6667 7.09175 23.8686 7.57926 24.228 7.93871C24.5875 8.29815 25.075 8.50008 25.5833 8.50008Z" fill="white"/>
</svg>
