<svg width="40" height="40" viewBox="0 0 40 40" fill="none" xmlns="http://www.w3.org/2000/svg">
<g clip-path="url(#clip0_228_1721)">
<path d="M35.3004 25.4075L39.5879 27.5525C40.1379 27.8275 40.1379 28.6125 39.5879 28.8875L20.6679 38.35C20.4606 38.4535 20.232 38.5073 20.0004 38.5073C19.7687 38.5073 19.5402 38.4535 19.3329 38.35L0.412868 28.8875C0.289272 28.8252 0.1854 28.7298 0.112824 28.612C0.0402486 28.4941 0.00182008 28.3584 0.00182008 28.22C0.00182008 28.0816 0.0402486 27.9459 0.112824 27.8281C0.1854 27.7102 0.289272 27.6148 0.412868 27.5525L4.70287 25.4075L17.9954 32.055C19.2579 32.685 20.7454 32.685 22.0054 32.055L35.2979 25.405L35.3004 25.4075ZM19.3329 0.157534C19.5402 0.0540906 19.7687 0.000244141 20.0004 0.000244141C20.232 0.000244141 20.4606 0.0540906 20.6679 0.157534L39.5879 9.61753C39.7114 9.68023 39.8151 9.7759 39.8875 9.89394C39.96 10.012 39.9983 10.1478 39.9983 10.2863C39.9983 10.4248 39.96 10.5606 39.8875 10.6786C39.8151 10.7967 39.7114 10.8923 39.5879 10.955L20.6679 20.4125C20.4606 20.516 20.232 20.5698 20.0004 20.5698C19.7687 20.5698 19.5402 20.516 19.3329 20.4125L0.412868 10.955C0.288617 10.893 0.184109 10.7975 0.111065 10.6794C0.0380204 10.5613 -0.000671387 10.4252 -0.000671387 10.2863C-0.000671387 10.1474 0.0380204 10.0113 0.111065 9.89314C0.184109 9.77502 0.288617 9.67958 0.412868 9.61753L19.3329 0.157534Z" fill="white"/>
<path d="M35.2985 16.6667L39.586 18.8117C40.136 19.0867 40.136 19.8717 39.586 20.1467L20.666 29.6067C20.4587 29.7102 20.2302 29.764 19.9985 29.764C19.7669 29.764 19.5384 29.7102 19.331 29.6067L0.411048 20.1467C0.287452 20.0844 0.18358 19.9891 0.111004 19.8712C0.0384285 19.7533 0 19.6177 0 19.4792C0 19.3408 0.0384285 19.2051 0.111004 19.0873C0.18358 18.9694 0.287452 18.874 0.411048 18.8117L4.70105 16.6667L17.9935 23.3142C19.256 23.9442 20.7435 23.9442 22.0035 23.3142L35.296 16.6667H35.2985Z" fill="white"/>
</g>
<defs>
<clipPath id="clip0_228_1721">
<rect width="40" height="40" fill="white"/>
</clipPath>
</defs>
</svg>
