<svg width="34" height="29" viewBox="0 0 34 29" fill="none" xmlns="http://www.w3.org/2000/svg">
<path d="M30.3334 6.66552H25.3334V3.77697C25.3334 2.18394 23.8384 0.888428 22 0.888428H12C10.1617 0.888428 8.66671 2.18394 8.66671 3.77697V6.66552H3.66671C1.82837 6.66552 0.333374 7.96103 0.333374 9.55406V25.4411C0.333374 27.0341 1.82837 28.3296 3.66671 28.3296H30.3334C32.1717 28.3296 33.6667 27.0341 33.6667 25.4411V9.55406C33.6667 7.96103 32.1717 6.66552 30.3334 6.66552ZM22 3.77697V6.66552H12V3.77697H22ZM10.3334 9.55406H30.3334V13.8869H3.66671V9.55406H10.3334ZM3.66671 25.4411V16.7754H13.6667V19.664H20.3334V16.7754H30.3334L30.335 25.4411H3.66671Z" fill="white"/>
</svg>
