<svg width="32" height="33" viewBox="0 0 32 33" fill="none" xmlns="http://www.w3.org/2000/svg">
<path d="M24.0001 10C24.0001 5.59 20.4101 2 16.0001 2C11.5901 2 8.0001 5.59 8.0001 10C8.0001 14.41 11.5901 18 16.0001 18C20.4101 18 24.0001 14.41 24.0001 10ZM11.0001 10C11.0001 7.24 13.2401 5 16.0001 5C18.7601 5 21.0001 7.24 21.0001 10C21.0001 12.76 18.7601 15 16.0001 15C13.2401 15 11.0001 12.76 11.0001 10ZM18.4001 20H13.6001C8.3601 20 4.1001 24.26 4.1001 29.5C4.1001 30.33 4.7701 31 5.6001 31H26.4001C27.2301 31 27.9001 30.33 27.9001 29.5C27.9001 24.26 23.6401 20 18.4001 20ZM7.2701 28C7.9501 25.14 10.5301 23 13.6001 23H18.4001C21.4701 23 24.0501 25.14 24.7301 28H7.2701Z" fill="#F4F3F8"/>
</svg>
