<svg width="1920" height="1044" viewBox="0 0 1920 1044" fill="none" xmlns="http://www.w3.org/2000/svg">
<path d="M1920 130.209L0.00012207 0V562.197L1920 638V130.209Z" fill="#7CA8D1"/>
<path d="M0 274L1920 195.5V1044H0V274Z" fill="#1358DB"/>
<rect x="68" y="1001" width="43" height="43" fill="#002255"/>
<rect x="111" y="973" width="28" height="28" fill="#D9D9D9" fill-opacity="0.41"/>
<rect y="933" width="68" height="68" fill="#D9D9D9" fill-opacity="0.2"/>
<rect x="1667" y="191" width="43" height="43" fill="#002255"/>
<rect x="1710" y="163" width="28" height="28" fill="#D9D9D9" fill-opacity="0.41"/>
<rect x="1599" y="123" width="68" height="68" fill="#D9D9D9" fill-opacity="0.2"/>
<rect y="312" width="77" height="77" fill="#02142F"/>
<rect x="77" y="389" width="43" height="43" fill="#EEEBEB"/>
<rect x="120" y="346" width="43" height="43" fill="#D9D9D9" fill-opacity="0.14"/>
<g opacity="0.5">
<ellipse cx="1588.76" cy="837.516" rx="7.73446" ry="7.51596" fill="#FAFAFA" fill-opacity="0.48"/>
<ellipse cx="1636.89" cy="837.516" rx="7.73446" ry="7.51596" fill="#FAFAFA" fill-opacity="0.48"/>
<ellipse cx="1685.01" cy="837.516" rx="7.73446" ry="7.51596" fill="#FAFAFA" fill-opacity="0.48"/>
<ellipse cx="1733.14" cy="837.516" rx="7.73446" ry="7.51596" fill="#FAFAFA" fill-opacity="0.48"/>
<ellipse cx="1781.27" cy="837.516" rx="7.73446" ry="7.51596" fill="#FAFAFA" fill-opacity="0.48"/>
<ellipse cx="1588.76" cy="865.909" rx="7.73446" ry="7.51596" fill="#FAFAFA" fill-opacity="0.48"/>
<ellipse cx="1636.89" cy="865.909" rx="7.73446" ry="7.51596" fill="#FAFAFA" fill-opacity="0.48"/>
<ellipse cx="1685.01" cy="865.909" rx="7.73446" ry="7.51596" fill="#FAFAFA" fill-opacity="0.48"/>
<ellipse cx="1733.14" cy="865.909" rx="7.73446" ry="7.51596" fill="#FAFAFA" fill-opacity="0.48"/>
<ellipse cx="1781.27" cy="865.909" rx="7.73446" ry="7.51596" fill="#FAFAFA" fill-opacity="0.48"/>
<ellipse cx="1588.76" cy="894.303" rx="7.73446" ry="7.51596" fill="#FAFAFA" fill-opacity="0.48"/>
<ellipse cx="1636.89" cy="894.303" rx="7.73446" ry="7.51596" fill="#FAFAFA" fill-opacity="0.48"/>
<ellipse cx="1685.01" cy="894.303" rx="7.73446" ry="7.51596" fill="#FAFAFA" fill-opacity="0.48"/>
<ellipse cx="1733.14" cy="894.303" rx="7.73446" ry="7.51596" fill="#FAFAFA" fill-opacity="0.48"/>
<ellipse cx="1781.27" cy="894.303" rx="7.73446" ry="7.51596" fill="#FAFAFA" fill-opacity="0.48"/>
<ellipse cx="1588.76" cy="922.697" rx="7.73446" ry="7.51596" fill="#FAFAFA" fill-opacity="0.48"/>
<ellipse cx="1636.89" cy="922.697" rx="7.73446" ry="7.51596" fill="#FAFAFA" fill-opacity="0.48"/>
<ellipse cx="1685.01" cy="922.697" rx="7.73446" ry="7.51596" fill="#FAFAFA" fill-opacity="0.48"/>
<ellipse cx="1733.14" cy="922.697" rx="7.73446" ry="7.51596" fill="#FAFAFA" fill-opacity="0.48"/>
<ellipse cx="1781.27" cy="922.697" rx="7.73446" ry="7.51596" fill="#FAFAFA" fill-opacity="0.48"/>
<ellipse cx="1588.76" cy="951.09" rx="7.73446" ry="7.51596" fill="#FAFAFA" fill-opacity="0.48"/>
<ellipse cx="1636.89" cy="951.09" rx="7.73446" ry="7.51596" fill="#FAFAFA" fill-opacity="0.48"/>
<ellipse cx="1685.01" cy="951.09" rx="7.73446" ry="7.51596" fill="#FAFAFA" fill-opacity="0.48"/>
<ellipse cx="1733.14" cy="951.09" rx="7.73446" ry="7.51596" fill="#FAFAFA" fill-opacity="0.48"/>
<ellipse cx="1781.27" cy="951.09" rx="7.73446" ry="7.51596" fill="#FAFAFA" fill-opacity="0.48"/>
<ellipse cx="1588.76" cy="979.484" rx="7.73446" ry="7.51596" fill="#FAFAFA" fill-opacity="0.48"/>
<ellipse cx="1636.89" cy="979.484" rx="7.73446" ry="7.51596" fill="#FAFAFA" fill-opacity="0.48"/>
<ellipse cx="1685.01" cy="979.484" rx="7.73446" ry="7.51596" fill="#FAFAFA" fill-opacity="0.48"/>
<ellipse cx="1733.14" cy="979.484" rx="7.73446" ry="7.51596" fill="#FAFAFA" fill-opacity="0.48"/>
<ellipse cx="1781.27" cy="979.484" rx="7.73446" ry="7.51596" fill="#FAFAFA" fill-opacity="0.48"/>
</g>
<g opacity="0.5">
<ellipse cx="1587.73" cy="658.516" rx="7.73446" ry="7.51596" fill="#FAFAFA" fill-opacity="0.48"/>
<ellipse cx="1635.86" cy="658.516" rx="7.73446" ry="7.51596" fill="#FAFAFA" fill-opacity="0.48"/>
<ellipse cx="1683.99" cy="658.516" rx="7.73446" ry="7.51596" fill="#FAFAFA" fill-opacity="0.48"/>
<ellipse cx="1732.11" cy="658.516" rx="7.73446" ry="7.51596" fill="#FAFAFA" fill-opacity="0.48"/>
<ellipse cx="1780.24" cy="658.516" rx="7.73446" ry="7.51596" fill="#FAFAFA" fill-opacity="0.48"/>
<ellipse cx="1587.73" cy="686.909" rx="7.73446" ry="7.51596" fill="#FAFAFA" fill-opacity="0.48"/>
<ellipse cx="1635.86" cy="686.909" rx="7.73446" ry="7.51596" fill="#FAFAFA" fill-opacity="0.48"/>
<ellipse cx="1683.99" cy="686.909" rx="7.73446" ry="7.51596" fill="#FAFAFA" fill-opacity="0.48"/>
<ellipse cx="1732.11" cy="686.909" rx="7.73446" ry="7.51596" fill="#FAFAFA" fill-opacity="0.48"/>
<ellipse cx="1780.24" cy="686.909" rx="7.73446" ry="7.51596" fill="#FAFAFA" fill-opacity="0.48"/>
<ellipse cx="1587.73" cy="715.303" rx="7.73446" ry="7.51596" fill="#FAFAFA" fill-opacity="0.48"/>
<ellipse cx="1635.86" cy="715.303" rx="7.73446" ry="7.51596" fill="#FAFAFA" fill-opacity="0.48"/>
<ellipse cx="1683.99" cy="715.303" rx="7.73446" ry="7.51596" fill="#FAFAFA" fill-opacity="0.48"/>
<ellipse cx="1732.11" cy="715.303" rx="7.73446" ry="7.51596" fill="#FAFAFA" fill-opacity="0.48"/>
<ellipse cx="1780.24" cy="715.303" rx="7.73446" ry="7.51596" fill="#FAFAFA" fill-opacity="0.48"/>
<ellipse cx="1587.73" cy="743.697" rx="7.73446" ry="7.51596" fill="#FAFAFA" fill-opacity="0.48"/>
<ellipse cx="1635.86" cy="743.697" rx="7.73446" ry="7.51596" fill="#FAFAFA" fill-opacity="0.48"/>
<ellipse cx="1683.99" cy="743.697" rx="7.73446" ry="7.51596" fill="#FAFAFA" fill-opacity="0.48"/>
<ellipse cx="1732.11" cy="743.697" rx="7.73446" ry="7.51596" fill="#FAFAFA" fill-opacity="0.48"/>
<ellipse cx="1780.24" cy="743.697" rx="7.73446" ry="7.51596" fill="#FAFAFA" fill-opacity="0.48"/>
<ellipse cx="1587.73" cy="772.09" rx="7.73446" ry="7.51596" fill="#FAFAFA" fill-opacity="0.48"/>
<ellipse cx="1635.86" cy="772.09" rx="7.73446" ry="7.51596" fill="#FAFAFA" fill-opacity="0.48"/>
<ellipse cx="1683.99" cy="772.09" rx="7.73446" ry="7.51596" fill="#FAFAFA" fill-opacity="0.48"/>
<ellipse cx="1732.11" cy="772.09" rx="7.73446" ry="7.51596" fill="#FAFAFA" fill-opacity="0.48"/>
<ellipse cx="1780.24" cy="772.09" rx="7.73446" ry="7.51596" fill="#FAFAFA" fill-opacity="0.48"/>
<ellipse cx="1587.73" cy="800.484" rx="7.73446" ry="7.51596" fill="#FAFAFA" fill-opacity="0.48"/>
<ellipse cx="1635.86" cy="800.484" rx="7.73446" ry="7.51596" fill="#FAFAFA" fill-opacity="0.48"/>
<ellipse cx="1683.99" cy="800.484" rx="7.73446" ry="7.51596" fill="#FAFAFA" fill-opacity="0.48"/>
<ellipse cx="1732.11" cy="800.484" rx="7.73446" ry="7.51596" fill="#FAFAFA" fill-opacity="0.48"/>
<ellipse cx="1780.24" cy="800.484" rx="7.73446" ry="7.51596" fill="#FAFAFA" fill-opacity="0.48"/>
</g>
</svg>
