<svg width="16" height="14" viewBox="0 0 16 14" fill="none" xmlns="http://www.w3.org/2000/svg">
<path d="M0.5 8.95005C0.632608 8.95005 0.759785 9.00273 0.853553 9.0965C0.947322 9.19026 1 9.31744 1 9.45005V11.95C1 12.2153 1.10536 12.4696 1.29289 12.6572C1.48043 12.8447 1.73478 12.95 2 12.95H14C14.2652 12.95 14.5196 12.8447 14.7071 12.6572C14.8946 12.4696 15 12.2153 15 11.95V9.45005C15 9.31744 15.0527 9.19026 15.1464 9.0965C15.2402 9.00273 15.3674 8.95005 15.5 8.95005C15.6326 8.95005 15.7598 9.00273 15.8536 9.0965C15.9473 9.19026 16 9.31744 16 9.45005V11.95C16 12.4805 15.7893 12.9892 15.4142 13.3643C15.0391 13.7393 14.5304 13.95 14 13.95H2C1.46957 13.95 0.960859 13.7393 0.585786 13.3643C0.210714 12.9892 0 12.4805 0 11.95V9.45005C0 9.31744 0.0526784 9.19026 0.146447 9.0965C0.240215 9.00273 0.367392 8.95005 0.5 8.95005Z" fill="#437EF7"/>
<path d="M7.646 10.904C7.69245 10.9506 7.74762 10.9876 7.80837 11.0128C7.86911 11.038 7.93423 11.0509 8 11.0509C8.06577 11.0509 8.13089 11.038 8.19163 11.0128C8.25238 10.9876 8.30755 10.9506 8.354 10.904L11.354 7.90405C11.4479 7.81016 11.5006 7.68282 11.5006 7.55005C11.5006 7.41727 11.4479 7.28994 11.354 7.19605C11.2601 7.10216 11.1328 7.04942 11 7.04942C10.8672 7.04942 10.7399 7.10216 10.646 7.19605L8.5 9.34305V0.550049C8.5 0.417441 8.44732 0.290264 8.35355 0.196495C8.25979 0.102727 8.13261 0.0500488 8 0.0500488C7.86739 0.0500488 7.74021 0.102727 7.64645 0.196495C7.55268 0.290264 7.5 0.417441 7.5 0.550049V9.34305L5.354 7.19605C5.26011 7.10216 5.13278 7.04942 5 7.04942C4.86722 7.04942 4.73989 7.10216 4.646 7.19605C4.55211 7.28994 4.49937 7.41727 4.49937 7.55005C4.49937 7.68282 4.55211 7.81016 4.646 7.90405L7.646 10.904Z" fill="#437EF7"/>
</svg>
