<svg width="34" height="278" viewBox="0 0 34 278" fill="none" xmlns="http://www.w3.org/2000/svg">
<path d="M33.0617 6.27201L18.2429 0.246268C17.4354 -0.0820893 16.5642 -0.0820893 15.7572 0.246268L0.937926 6.27201C-0.312642 6.78037 -0.312642 8.96918 0.937926 9.47754L3.5214 10.528C2.95456 11.4554 2.60606 12.5867 2.57153 13.8256C2.05993 14.2138 1.69974 14.9141 1.69974 15.7501C1.69974 16.508 2.00149 17.1458 2.43606 17.5536L1.07977 25.631C0.961832 26.3334 1.36558 27 1.90905 27H4.88991C5.43391 27 5.83766 26.3334 5.71973 25.631L4.36344 17.5536C4.798 17.1458 5.09975 16.508 5.09975 15.7501C5.09975 14.9366 4.75603 14.2559 4.26781 13.8608C4.30819 12.8047 4.71619 11.871 5.36697 11.2789L15.7567 15.504C16.238 15.6994 17.1613 15.9434 18.2424 15.504L33.0617 9.47824C34.3128 8.96918 34.3128 6.78107 33.0617 6.27201ZM18.7418 17.6548C17.2261 18.2708 15.9346 17.9305 15.2573 17.6548L7.55308 14.5224L6.79976 22.5C6.79976 24.9856 11.3664 27 16.9998 27C22.6332 27 27.1998 24.9856 27.1998 22.5L26.4465 14.5217L18.7418 17.6548Z" fill="#094195"/>
<path d="M16.6418 33.0001L17.3584 277" stroke="#094195" stroke-width="2"/>
</svg>
