<svg width="20" height="19" viewBox="0 0 20 19" fill="none" xmlns="http://www.w3.org/2000/svg">
<path d="M1.7056 8.35665L18.2656 1.12068M18.2656 1.12068L15.1696 0M18.2656 1.12068L17.1136 4.09531M19 18H15.4V8.31514C15.4 8.13167 15.4759 7.95572 15.6109 7.82598C15.7459 7.69625 15.929 7.62337 16.12 7.62337H18.28C18.471 7.62337 18.6541 7.69625 18.7891 7.82598C18.9241 7.95572 19 8.13167 19 8.31514V18ZM11.8 18H8.2V10.3905C8.2 10.207 8.27586 10.031 8.41088 9.90131C8.54591 9.77158 8.72904 9.69869 8.92 9.69869H11.08C11.271 9.69869 11.4541 9.77158 11.5891 9.90131C11.7241 10.031 11.8 10.207 11.8 10.3905V18ZM4.6 18H1V12.4658C1 12.2823 1.07586 12.1064 1.21088 11.9766C1.34591 11.8469 1.52904 11.774 1.72 11.774H3.88C4.07096 11.774 4.25409 11.8469 4.38912 11.9766C4.52414 12.1064 4.6 12.2823 4.6 12.4658V18Z" stroke="white" stroke-linecap="round" stroke-linejoin="round"/>
</svg>
