<svg width="28" height="28" viewBox="0 0 28 28" fill="none" xmlns="http://www.w3.org/2000/svg">
<path d="M14.0005 0.000488281C6.26845 0.000488281 0.000976562 6.26914 0.000976562 14C0.000976562 21.7321 6.26845 27.9995 14.0005 27.9995C21.7314 27.9995 28 21.7309 28 14C28 6.26914 21.7314 0.000488281 14.0005 0.000488281ZM10.5709 17.7593C10.5709 18.5159 9.95777 19.1278 9.20236 19.1278C8.44575 19.1278 7.83383 18.5159 7.83383 17.7593V11.9247C7.83383 11.1681 8.44575 10.555 9.20236 10.555C9.95777 10.555 10.5709 11.1681 10.5709 11.9247V17.7593ZM20.2383 17.6609C20.2383 18.7306 19.6134 19.1136 18.5437 19.1136H13.6222C12.5525 19.1136 11.6856 18.2467 11.6856 17.177V12.3362C11.6856 12.3362 11.5896 11.531 12.4814 10.7744C12.9854 10.3463 13.7337 9.52918 14.2567 8.53777C15.2955 6.56799 15.9169 5.99402 16.3901 6.14818C18.1428 6.71623 17.2665 9.31453 16.7008 10.3996H18.3017C19.3702 10.3996 20.2383 11.2665 20.2383 12.3362V17.6609Z" fill="#094195"/>
</svg>
