<svg width="74" height="84" viewBox="0 0 74 84" fill="none" xmlns="http://www.w3.org/2000/svg">
<path d="M28.25 48.1538C28.25 50.602 29.1719 52.9499 30.8128 54.681C32.4538 56.4121 34.6794 57.3846 37 57.3846M37 57.3846C38.1714 57.4765 39.3478 57.3008 40.4489 56.8694C41.55 56.4381 42.55 55.7612 43.3806 54.885C44.2111 54.0088 44.8528 52.9539 45.2617 51.7922C45.6706 50.6306 45.8372 49.3896 45.75 48.1538C45.75 38.9231 28.25 38.9231 28.25 29.6923C28.1629 28.4566 28.3295 27.2156 28.7384 26.0539C29.1473 24.8923 29.7889 23.8374 30.6195 22.9612C31.4501 22.085 32.45 21.4081 33.5511 20.9767C34.6523 20.5453 35.8287 20.3696 37 20.4615M37 57.3846V63.5385M37 20.4615C39.3207 20.4615 41.5463 21.4341 43.1872 23.1652C44.8281 24.8963 45.75 27.2442 45.75 29.6923M37 20.4615V14.3077M72 41.6308C71.9453 48.0376 70.2106 54.3035 66.9879 59.7343C63.7653 65.1651 59.1806 69.5489 53.7417 72.4L37 82L20.2584 72.7692C14.7664 69.89 10.1466 65.4487 6.92038 59.9465C3.69415 54.4444 1.98993 48.1005 2.00004 41.6308V8.15385C2.00004 6.52174 2.61463 4.95649 3.70859 3.80242C4.80255 2.64835 6.28628 2 7.83337 2H66.1667C67.7138 2 69.1975 2.64835 70.2915 3.80242C71.3854 4.95649 72 6.52174 72 8.15385V41.6308Z" stroke="#EEEEEE" stroke-width="4" stroke-linecap="round" stroke-linejoin="round"/>
</svg>
