<svg width="51" height="50" viewBox="0 0 51 50" fill="none" xmlns="http://www.w3.org/2000/svg">
<path d="M48.8991 17.1275C51.8898 14.1369 50.5261 10.6439 48.8991 8.94521L41.7213 1.7678C38.7066 -1.22278 35.2374 0.140925 33.5386 1.7678L29.4712 5.85893H23.2744C18.7285 5.85893 16.0966 8.2514 14.7568 11.0027L4.13363 21.6253V31.1952L2.43489 32.8699C-0.555855 35.8844 0.807925 39.3535 2.43489 41.0522L9.61268 48.2296C10.9047 49.5215 12.2924 50 13.6083 50C15.3071 50 16.8622 49.1626 17.7954 48.2296L24.2554 41.746H32.8448C36.9122 41.746 38.9698 39.21 39.7115 36.7218C42.4152 36.004 43.8986 33.9465 44.4967 31.9368C48.2052 30.9799 49.5929 27.4629 49.5929 24.9987V17.8213H48.1813L48.8991 17.1275ZM44.8078 24.9987C44.8078 26.0753 44.3532 27.3912 42.4152 27.3912H40.0226V29.7836C40.0226 30.8602 39.568 32.1761 37.63 32.1761H35.2374V34.5686C35.2374 35.6452 34.7828 36.961 32.8448 36.961H22.2934L14.4457 44.8083C13.704 45.5022 13.2733 45.0954 13.0102 44.8323L5.8563 37.7027C5.16245 36.961 5.56919 36.5304 5.83238 36.2672L8.91882 33.157V23.5871L13.704 18.8022V22.6062C13.704 25.5011 15.6181 29.7836 20.8818 29.7836C26.1455 29.7836 28.0596 25.5011 28.0596 22.6062H44.8078V24.9987ZM45.5016 13.7302L41.4342 17.8213H23.2744V22.6062C23.2744 23.6828 22.8198 24.9987 20.8818 24.9987C18.9438 24.9987 18.4892 23.6828 18.4892 22.6062V15.4288C18.4892 14.3283 18.8959 10.6439 23.2744 10.6439H31.4331L36.8883 5.18904C37.63 4.49522 38.0606 4.90194 38.3238 5.16511L45.4777 12.2947C46.1715 13.0363 45.7648 13.467 45.5016 13.7302Z" fill="#EEEEEE"/>
</svg>
