<svg width="190" height="190" viewBox="0 0 190 190" fill="none" xmlns="http://www.w3.org/2000/svg">
<path d="M38.556 14.9432C57.4881 -3.98887 88.183 -3.98887 107.115 14.9432L175.674 83.5022C194.606 102.434 194.606 133.129 175.674 152.061C156.742 170.993 126.047 170.993 107.115 152.061L38.556 83.5022C19.6239 64.5702 19.6239 33.8752 38.556 14.9432Z" fill="#1358DB"/>
<path d="M20.237 107.737C28.9284 99.0454 43.02 99.0454 51.7114 107.737L83.1857 139.211C91.8771 147.902 91.8771 161.994 83.1857 170.685C74.4943 179.377 60.4027 179.377 51.7114 170.685L20.237 139.211C11.5456 130.52 11.5456 116.428 20.237 107.737Z" fill="#1358DB"/>
<path d="M3.86874 152.368C8.49061 147.746 15.9841 147.746 20.606 152.368L37.3433 169.105C41.9651 173.727 41.9651 181.221 37.3433 185.843C32.7214 190.465 25.2279 190.465 20.606 185.843L3.86874 169.105C-0.753123 164.484 -0.753123 156.99 3.86874 152.368Z" fill="#1358DB"/>
</svg>
