<svg width="53" height="47" viewBox="0 0 53 47" fill="none" xmlns="http://www.w3.org/2000/svg">
<path d="M26.5 28.1686C29.1135 28.1686 31.2321 26.0572 31.2321 23.4526C31.2321 20.8481 29.1135 18.7366 26.5 18.7366C23.8865 18.7366 21.7679 20.8481 21.7679 23.4526C21.7679 26.0572 23.8865 28.1686 26.5 28.1686Z" fill="#1358DB"/>
<path d="M26.5 34.2655C20.8122 34.4026 15.1387 33.6385 9.69143 32.0018C7.17511 31.2069 4.82818 29.9546 2.76925 28.3082C1.98358 27.7458 1.3293 27.0207 0.851298 26.1825C0.373295 25.3444 0.0828875 24.4131 0 23.4526C0 20.3344 3.43743 17.2784 9.1955 15.2789C14.7884 13.5071 20.632 12.6483 26.5 12.736C32.2897 12.6554 38.055 13.4986 43.5774 15.2336C46.0008 16.0035 48.2681 17.1953 50.2743 18.7536C51.0465 19.2898 51.691 19.9887 52.162 20.8007C52.6331 21.6128 52.9191 22.5181 53 23.4526C53 26.6935 49.1575 29.9777 42.9679 32.0188C37.6261 33.6022 32.0723 34.3599 26.5 34.2655ZM26.5 14.9921C20.886 14.9173 15.2958 15.7337 9.93939 17.4105C4.63939 19.2535 2.26386 21.7737 2.26386 23.447C2.26386 25.1976 4.81732 27.9498 10.424 29.8607C15.6351 31.4186 21.0611 32.1438 26.5 32.0094C31.8311 32.1044 37.1453 31.3855 42.258 29.8777C48.0786 27.9555 50.7286 25.1994 50.7286 23.4526C50.6331 22.8532 50.4139 22.28 50.0848 21.7693C49.7557 21.2585 49.324 20.8213 48.8168 20.4853C47.0219 19.1029 44.9964 18.0467 42.8335 17.3652C37.5506 15.7123 32.0366 14.9111 26.5 14.9921Z" fill="#1358DB"/>
<path d="M15.7486 46.9742C14.8656 46.9944 13.993 46.7809 13.2197 46.3554C10.5091 44.7973 9.57029 40.3039 10.7079 34.3334C11.9622 28.6197 14.1355 23.1457 17.1436 18.1236C19.9653 13.0852 23.5778 8.52915 27.8439 4.62823C29.7238 2.92048 31.8925 1.55819 34.2494 0.604534C35.1018 0.206388 36.0317 0 36.9732 0C37.9146 0 38.8445 0.206388 39.697 0.604534C42.5155 2.22307 43.4487 7.18053 42.1331 13.5434C40.8401 18.9471 38.7232 24.1213 35.8564 28.8855C33.134 33.8644 29.6353 38.3807 25.4911 42.2657C23.5429 44.0404 21.282 45.4404 18.8226 46.3951C17.8379 46.7593 16.7987 46.9551 15.7486 46.9742ZM19.1046 19.2441C16.2352 24.0531 14.1523 29.2867 12.9339 34.7484C11.8871 40.2473 12.8923 43.5541 14.3535 44.3955C15.8678 45.2689 19.5437 44.4408 24.0071 40.5548C27.9632 36.8328 31.3026 32.5096 33.9011 27.7461C36.6475 23.1914 38.6781 18.2446 39.9222 13.0774C41.1602 7.0881 40.0907 3.42093 38.5726 2.54941C38.0037 2.33215 37.3957 2.23489 36.787 2.26379C36.1784 2.29269 35.5825 2.44712 35.0368 2.7173C32.9389 3.58004 31.0102 4.80485 29.3393 6.33542C25.2633 10.072 21.8127 14.4336 19.1179 19.2554L19.1046 19.2441Z" fill="#1358DB"/>
<path d="M37.2458 46.9987C34.6809 46.9987 31.4233 45.4519 28.0313 42.5449C23.6904 38.6085 20.0169 33.9984 17.1531 28.893C14.1827 23.94 12.0266 18.5452 10.7666 12.9133C10.2201 10.4355 10.1189 7.88075 10.4675 5.3677C10.5481 4.43545 10.8329 3.53218 11.3019 2.72157C11.7709 1.91097 12.4127 1.21277 13.1819 0.676217C15.9965 -0.947975 20.7722 0.721491 25.6463 5.03381C29.6982 8.84846 33.139 13.2598 35.8488 18.1141C38.8174 22.9515 40.9961 28.2281 42.3035 33.7467C42.8734 36.3155 42.9614 38.9671 42.5628 41.5678C42.468 42.5268 42.1661 43.4541 41.678 44.286C41.1899 45.1179 40.527 45.8348 39.7349 46.3875C38.9742 46.8077 38.1152 47.0186 37.2458 46.9987ZM19.1122 27.7574C21.8595 32.6365 25.3686 37.0486 29.5078 40.8283C33.7648 44.4785 37.1416 45.2632 38.5935 44.4125C40.1077 43.5353 41.2245 39.9549 40.0737 34.1617C38.8128 28.8929 36.7231 23.8562 33.8821 19.2384C31.2962 14.5924 28.0119 10.3683 24.1434 6.7127C19.5551 2.65317 15.8338 1.74581 14.3176 2.6211C13.845 3.00381 13.4572 3.48002 13.1786 4.01965C12.9001 4.55928 12.7368 5.15061 12.6992 5.7563C12.3982 7.99751 12.4963 10.2741 12.9888 12.4813C14.2008 17.8673 16.2686 23.0256 19.1141 27.7612L19.1122 27.7574Z" fill="#1358DB"/>
</svg>
