<svg width="43" height="44" viewBox="0 0 43 44" fill="none" xmlns="http://www.w3.org/2000/svg">
<path d="M20.7598 10.2227C21.3308 9.92578 22.0029 9.92578 22.5738 10.2227L31.8788 15.0609C33.3736 15.8382 33.3736 18.0566 31.8788 18.8338L22.5738 23.6721C22.0029 23.969 21.3308 23.969 20.7598 23.6721L11.4549 18.8338C9.96007 18.0566 9.96006 15.8382 11.4549 15.0609L20.7598 10.2227Z" fill="#1358DB"/>
<path d="M12.1595 21.5035C11.5384 21.1896 10.7812 21.4403 10.4684 22.0633C10.1555 22.6864 10.4054 23.4459 11.0265 23.7597L20.8188 28.7076C21.3524 28.9772 21.9813 28.9772 22.5149 28.7076L32.3071 23.7597C32.9283 23.4459 33.1781 22.6864 32.8653 22.0633C32.5524 21.4403 31.7953 21.1896 31.1742 21.5035L21.6668 26.3074L12.1595 21.5035Z" fill="#1358DB"/>
<path d="M12.1595 26.5936C11.5384 26.2798 10.7812 26.5305 10.4684 27.1535C10.1555 27.7766 10.4054 28.536 11.0265 28.8499L20.8188 33.7978C21.3524 34.0674 21.9813 34.0674 22.5149 33.7978L32.3071 28.8499C32.9283 28.536 33.1781 27.7766 32.8653 27.1535C32.5524 26.5305 31.7953 26.2798 31.1742 26.5936L21.6668 31.3976L12.1595 26.5936Z" fill="#1358DB"/>
</svg>
