<svg width="116" height="31" viewBox="0 0 116 31" fill="none" xmlns="http://www.w3.org/2000/svg">
<rect width="116" height="31" fill="none"/>
<path d="M10.3138 7.65077C10.6872 6.50166 12.3128 6.50166 12.6862 7.65077L13.8019 11.0845C13.9689 11.5984 14.4478 11.9463 14.9881 11.9463H18.5985C19.8067 11.9463 20.3091 13.4924 19.3316 14.2026L16.4107 16.3248C15.9736 16.6424 15.7907 17.2053 15.9576 17.7192L17.0733 21.1529C17.4467 22.302 16.1315 23.2576 15.154 22.5474L12.2331 20.4252C11.796 20.1076 11.204 20.1076 10.7669 20.4252L7.846 22.5474C6.86851 23.2576 5.55331 22.302 5.92668 21.1529L7.04235 17.7192C7.20933 17.2053 7.02641 16.6424 6.58926 16.3248L3.66838 14.2026C2.69089 13.4924 3.19326 11.9463 4.4015 11.9463H8.01191C8.55225 11.9463 9.03114 11.5984 9.19811 11.0845L10.3138 7.65077Z" fill="#FFAE43"/>
<path d="M33.8188 7.48391C34.2016 6.35488 35.7984 6.35488 36.1812 7.48391L37.4071 11.0995C37.5787 11.6057 38.0538 11.9463 38.5883 11.9463H42.4386C43.6596 11.9463 44.1533 13.5194 43.1513 14.2171L40.1289 16.3215C39.673 16.6389 39.482 17.2195 39.6604 17.7456L40.8361 21.2134C41.2226 22.3533 39.93 23.3252 38.9423 22.6375L35.7127 20.3888C35.2844 20.0906 34.7156 20.0906 34.2873 20.3888L31.0577 22.6375C30.07 23.3252 28.7774 22.3533 29.1638 21.2134L30.3396 17.7456C30.518 17.2195 30.3269 16.6389 29.8711 16.3215L26.8487 14.2171C25.8467 13.5194 26.3404 11.9463 27.5614 11.9463H31.4117C31.9462 11.9463 32.4213 11.6057 32.5929 11.0995L33.8188 7.48391Z" fill="#FFAE43"/>
<path d="M57.3138 7.65077C57.6872 6.50166 59.3128 6.50166 59.6862 7.65077L60.8019 11.0845C60.9689 11.5984 61.4478 11.9463 61.9881 11.9463H65.5985C66.8067 11.9463 67.3091 13.4924 66.3316 14.2026L63.4107 16.3248C62.9736 16.6424 62.7907 17.2053 62.9576 17.7192L64.0733 21.1529C64.4467 22.302 63.1315 23.2576 62.154 22.5474L59.2331 20.4252C58.796 20.1076 58.204 20.1076 57.7669 20.4252L54.846 22.5474C53.8685 23.2576 52.5533 22.302 52.9267 21.1529L54.0424 17.7192C54.2093 17.2053 54.0264 16.6424 53.5893 16.3248L50.6684 14.2026C49.6909 13.4924 50.1933 11.9463 51.4015 11.9463H55.0119C55.5522 11.9463 56.0311 11.5984 56.1981 11.0845L57.3138 7.65077Z" fill="#FFAE43"/>
<path d="M80.3138 7.65077C80.6872 6.50166 82.3128 6.50166 82.6862 7.65077L83.8019 11.0845C83.9689 11.5984 84.4478 11.9463 84.9881 11.9463H88.5985C89.8067 11.9463 90.3091 13.4924 89.3316 14.2026L86.4107 16.3248C85.9736 16.6424 85.7907 17.2053 85.9576 17.7192L87.0733 21.1529C87.4467 22.302 86.1315 23.2576 85.154 22.5474L82.2331 20.4252C81.796 20.1076 81.204 20.1076 80.7669 20.4252L77.846 22.5474C76.8685 23.2576 75.5533 22.302 75.9267 21.1529L77.0424 17.7192C77.2093 17.2053 77.0264 16.6424 76.5893 16.3248L73.6684 14.2026C72.6909 13.4924 73.1933 11.9463 74.4015 11.9463H78.0119C78.5522 11.9463 79.0311 11.5984 79.1981 11.0845L80.3138 7.65077Z" fill="#FFAE43"/>
<path d="M103.314 7.65077C103.687 6.50166 105.313 6.50166 105.686 7.65077L106.802 11.0845C106.969 11.5984 107.448 11.9463 107.988 11.9463H111.599C112.807 11.9463 113.309 13.4924 112.332 14.2026L109.411 16.3248C108.974 16.6424 108.791 17.2053 108.958 17.7192L110.073 21.1529C110.447 22.302 109.131 23.2576 108.154 22.5474L105.233 20.4252C104.796 20.1076 104.204 20.1076 103.767 20.4252L100.846 22.5474C99.8685 23.2576 98.5533 22.302 98.9267 21.1529L100.042 17.7192C100.209 17.2053 100.026 16.6424 99.5893 16.3248L96.6684 14.2026C95.6909 13.4924 96.1933 11.9463 97.4015 11.9463H101.012C101.552 11.9463 102.031 11.5984 102.198 11.0845L103.314 7.65077Z" fill="#FFAE43"/>
</svg>
